<svg width="768" height="171" viewBox="0 0 768 171" fill="none" xmlns="http://www.w3.org/2000/svg">
<path d="M298 59.0001C298 60.3201 298 61.6401 298 63.0001C298.66 63.3301 299.32 63.6601 300 64.0001C299.34 64.0001 298.68 64.0001 298 64.0001C298.33 64.9901 298.66 65.9801 299 67.0001C299.89 66.2201 300.77 65.4301 301.69 64.6201C307.18 60.1201 312.95 58.9001 320 59.0001C323.47 59.6901 326.69 60.7701 330 62.0001C330.95 62.2701 331.9 62.5401 332.88 62.8101C338.49 65.9501 341.57 74.3101 344 80.0001C346.65 90.4801 345.12 100.92 339.75 110.25C335.4 116.68 329.71 121.42 322 123C313.85 123.82 306.73 122.56 299 120C299.09 122.4 299.19 124.79 299.31 127.19C299.34 127.86 299.36 128.53 299.38 129.23C299.62 133.61 300.34 136.49 303 140C303.87 140.66 304.73 141.32 305.62 142C308 144 308 144 308.81 146.75C308.91 147.86 308.91 147.86 309 149C307.02 149 305.04 149 303 149C302.67 149.99 302.34 150.98 302 152C301.5 151.5 301.5 151.5 301 151C299.1 150.85 297.19 150.77 295.29 150.72C294.12 150.68 292.96 150.64 291.77 150.61C290.54 150.57 289.32 150.54 288.06 150.5C285.66 150.43 283.25 150.36 280.85 150.28C279.24 150.24 279.24 150.24 277.6 150.19C275 150 275 150 273 149C272.56 146.88 272.56 146.88 273 144C274.54 142.72 274.54 142.72 276.47 141.38C279.33 139.01 280.5 137.57 280.9 133.86C280.95 132.28 280.96 130.69 280.94 129.11C280.95 128.26 280.97 127.4 280.98 126.52C281.02 123.78 281.01 121.05 281 118.31C281.02 116.53 281.05 114.74 281.07 112.95C281.14 107.63 281.08 102.32 281 97.0001C280.99 96.1101 280.99 95.2101 280.98 94.2901C280.95 91.6901 280.89 89.0901 280.81 86.4801C280.8 85.3101 280.8 85.3101 280.8 84.1101C280.63 80.0401 280.22 78.2601 277.5 75.1501C276.26 74.0801 276.26 74.0801 275 73.0001C274.19 70.1901 274.19 70.1901 274 68.0001C277.86 65.5601 281.81 63.6401 286 61.8101C287.2 61.2801 288.39 60.7501 289.62 60.2101C292.73 59.1001 294.75 58.7201 298 59.0001ZM300 78.0001C297.36 87.2801 298.54 98.8101 301 108C303.57 111.82 305 112.7 309.38 114C313.77 114 316.21 113.22 320 111C324.81 105.67 326 99.2101 326 92.1901C325.54 85.2401 324.48 79.0101 319.94 73.5001C312.53 69.7201 304.9 71.1001 300 78.0001Z" fill="#44326A"/>
<path d="M189 36C200.55 36 212.1 36 224 36C224.66 37.32 225.32 38.64 226 40C221 45 221 45 219.25 46.44C215.96 50.55 216.84 57.49 216.83 62.55C216.83 63.36 216.83 64.17 216.82 65.01C216.82 66.72 216.81 68.43 216.81 70.14C216.81 72.73 216.79 75.32 216.78 77.91C216.18 92.33 216.18 92.33 221.12 105.44C226.36 110.1 231.8 111.57 238.76 111.28C244.24 110.59 247.86 109.37 251.44 105.06C253.56 100.91 254.12 97.66 254.18 93.02C254.19 92.03 254.2 91.04 254.22 90.03C254.22 88.97 254.23 87.91 254.24 86.81C254.25 85.17 254.25 85.17 254.26 83.5C254.28 81.18 254.29 78.87 254.3 76.56C254.31 73.01 254.36 69.47 254.4 65.93C254.41 63.68 254.42 61.43 254.43 59.19C254.45 57.6 254.45 57.6 254.48 55.97C254.58 50.33 254.58 50.33 252.16 45.43C251.45 44.96 250.73 44.48 250 44C249.01 43.34 248.02 42.68 247 42C247 40.02 247 38.04 247 36C256.24 36 265.48 36 275 36C275.99 37.98 275.99 37.98 277 40C272.38 44.88 272.38 44.88 269 46C268.99 46.84 268.99 46.84 268.98 47.7C268.92 53.59 268.83 59.48 268.74 65.37C268.7 67.56 268.68 69.75 268.65 71.94C268.32 103.43 268.32 103.43 258.81 114.56C250.34 121.91 241.36 124.3 230.18 123.84C218.47 122.61 210.2 119.54 202.62 110.33C196.86 102.06 196.86 92.43 196.68 82.69C196.66 81.72 196.64 80.76 196.62 79.76C196.56 76.7 196.5 73.63 196.44 70.56C196.39 68.47 196.35 66.39 196.31 64.3C196.2 59.2 196.1 54.1 196 49C194.35 48.67 192.7 48.34 191 48C191 47.34 191 46.68 191 46C190.34 45.67 189.68 45.34 189 45C189 42 189 39 189 36Z" fill="#45326A"/>
<path d="M540 30.0002C541.86 31.8602 541.24 34.9602 541.32 37.4502C541.34 38.1002 541.36 38.7502 541.38 39.4202C541.44 41.5102 541.5 43.6002 541.56 45.6902C541.61 47.0802 541.65 48.4702 541.69 49.8602C541.87 55.5702 542.03 61.2802 542 67.0002C542.7 66.4002 543.4 65.8002 544.12 65.1902C549.53 61.0702 553.67 59.5702 560.5 59.5602C561.77 59.5402 563.04 59.5202 564.34 59.5002C569.58 60.2102 572.58 62.5802 576.25 66.2502C579.96 72.0902 580.28 78.5002 580.24 85.2302C580.25 86.7702 580.27 88.3102 580.29 89.8502C580.3 92.2502 580.31 94.6402 580.31 97.0302C580.3 99.3702 580.33 101.7 580.36 104.04C580.35 104.75 580.34 105.46 580.33 106.19C580.44 111.92 582.38 113.93 586 118C585.5 119.49 585.5 119.49 585 121C575.76 121 566.52 121 557 121C557 117 557 117 558.98 114.73C561.56 111.24 561.51 108.46 561.39 104.29C561.38 103.2 561.38 103.2 561.37 102.09C561.35 99.7902 561.3 97.4902 561.25 95.1902C561.23 93.6202 561.21 92.0502 561.2 90.4902C561.15 86.6602 561.08 82.8302 561 79.0002C560.01 78.6702 559.02 78.3402 558 78.0002C558.33 77.0102 558.66 76.0202 559 75.0002C555.63 72.6102 552.81 72.8402 548.9 73.4602C546.04 74.2702 544.71 75.6102 543 78.0002C541.27 83.2402 541.82 88.9202 541.81 94.3802C541.79 96.0602 541.79 96.0602 541.78 97.7802C541.69 105.6 541.69 105.6 544 113C545.99 114.87 545.99 114.87 548 116C547.67 117.65 547.34 119.3 547 121C543.55 122.08 540.52 122.04 536.92 121.88C535.76 121.83 534.6 121.78 533.41 121.73C532.2 121.68 530.99 121.62 529.75 121.56C528.53 121.51 527.31 121.46 526.05 121.4C523.03 121.27 520.02 121.14 517 121C517.25 118.69 517.25 118.69 518 116C518.67 115.58 519.33 115.16 520.02 114.73C522.29 113.11 522.29 113.11 522.48 110.13C522.47 108.97 522.46 107.8 522.45 106.6C522.45 105.96 522.46 105.31 522.46 104.65C522.45 102.52 522.42 100.4 522.39 98.2702C522.38 96.7902 522.38 95.3202 522.37 93.8402C522.36 89.9602 522.32 86.0802 522.27 82.2002C522.23 78.2402 522.22 74.2802 522.2 70.3102C522.15 62.5402 522.08 54.7702 522 47.0002C521.01 46.6702 520.02 46.3402 519 46.0002C519 45.3402 519 44.6802 519 44.0002C518.34 43.6702 517.68 43.3402 517 43.0002C516.98 40.7702 516.98 40.7702 518 38.0002C520.55 36.1402 523.36 34.9502 526.25 33.6902C527.01 33.3302 527.78 32.9702 528.57 32.6002C535.68 29.3702 535.68 29.3702 540 30.0002Z" fill="#46346B"/>
<path d="M687 29C689.07 37.08 689.24 44.82 689.12 53.12C689.12 54.37 689.11 55.61 689.1 56.89C689.07 59.93 689.04 62.96 689 66C689.76 65.54 690.53 65.08 691.32 64.6C699.75 59.57 706.35 58.23 716 60C721.22 61.97 723.5 66.23 726 71C727.16 74.48 727.19 77.65 727.25 81.27C727.28 82.73 727.31 84.19 727.35 85.65C727.39 87.95 727.44 90.24 727.48 92.54C727.52 94.76 727.57 96.98 727.62 99.2C727.63 99.88 727.64 100.56 727.65 101.25C727.8 107.42 728.46 112.66 733 117C733 118.32 733 119.64 733 121C723.1 121 713.2 121 703 121C704 116 704 116 706.03 114.14C708.85 111.08 708.5 108.89 708.5 104.79C708.5 103.75 708.5 103.75 708.5 102.69C708.5 101.22 708.49 99.76 708.47 98.3C708.44 96.07 708.45 93.85 708.46 91.62C708.7 82.78 708.7 82.78 705 75C702.91 74.12 702.91 74.12 701 74C701 73.34 701 72.68 701 72C694.37 73.94 694.37 73.94 690 79C688.5 83.49 688.82 87.92 688.81 92.62C688.79 94.07 688.79 94.07 688.78 95.54C688.55 106.22 688.55 106.22 693.19 115.31C693.79 115.87 694.38 116.43 695 117C694.61 119.11 694.61 119.11 694 121C689.92 121.2 685.83 121.38 681.75 121.56C680.59 121.62 679.43 121.67 678.24 121.73C677.12 121.78 676.01 121.83 674.86 121.88C673.83 121.93 672.81 121.97 671.75 122.02C669.24 122 667.33 121.91 665 121C663.75 118.44 663.75 118.44 663 116C663.78 115.59 664.57 115.17 665.38 114.75C668.21 112.86 668.82 112.1 670 109C670.33 106.25 670.33 106.25 670.32 103.22C670.34 102.06 670.36 100.9 670.38 99.7C670.4 97.83 670.4 97.83 670.41 95.92C670.43 94.64 670.45 93.36 670.47 92.04C670.52 88.64 670.56 85.24 670.6 81.84C670.64 78.37 670.69 74.89 670.74 71.42C670.84 64.61 670.92 57.81 671 51C670.34 51 669.68 51 669 51C668.92 50.26 668.84 49.51 668.75 48.75C668.21 45.85 668.21 45.85 665.88 43.94C664 42 664 42 663.81 40C667.09 34.49 677.14 31.1 683.14 29.39C685 29 685 29 687 29Z" fill="#443269"/>
<path d="M405.875 66.4373C406.575 67.2873 407.275 68.1273 407.995 68.9973C408.705 69.8073 409.405 70.6073 410.125 71.4373C415.995 79.4573 416.665 87.3173 415.995 96.9973C414.375 105.677 409.765 113.397 402.495 118.437C393.575 124.117 382.945 124.417 372.795 122.347C364.195 119.547 358.225 114.867 354.065 106.817C350.445 99.0173 349.625 90.6273 351.685 82.2073C355.025 73.2673 359.875 66.8173 368.295 62.1873C380.285 56.9073 395.675 57.7973 405.875 66.4373ZM373.125 74.8873C368.665 83.2873 368.475 94.0073 371.185 103.057C372.955 107.507 375.615 111.807 379.995 113.997C384.925 114.497 387.025 114.587 391.315 111.997C396.775 106.597 397.295 100.467 397.375 93.1273C397.295 85.1873 396.315 78.6073 391.995 71.8773C388.105 69.4373 385.205 69.1773 380.665 69.3873C376.935 70.2473 375.375 71.8773 373.125 74.8873Z" fill="#463369"/>
<path d="M465 64C468.44 67.78 470 70.66 470 75.81C469.05 78.83 468.5 80.15 466 82C462.61 80.57 460.76 78.83 458.44 76C454.88 71.53 454.88 71.53 449.62 69.77C448.33 69.79 448.33 69.79 447 69.81C446.13 69.82 445.27 69.83 444.38 69.83C441.85 69.91 441.85 69.91 439 71C438.7 74.34 438.7 74.34 440 78C443.03 80.3 446.48 81.59 450 83C451.82 83.74 453.65 84.48 455.46 85.24C457.24 85.97 459.02 86.67 460.8 87.38C466.39 90.21 469.78 94.17 472 100C472.77 105.94 471.29 110.15 468 115C461.96 121.17 456.26 123.09 447.82 123.35C439.2 123.44 431.62 123.01 424.56 117.56C421.73 114.73 420.12 112.8 419.85 108.75C419.92 107.98 419.99 107.22 420.06 106.44C420.12 105.67 420.17 104.91 420.22 104.12C421.33 101.1 423.2 100.4 426 99C426.58 99.76 427.16 100.52 427.76 101.3C428.93 102.79 428.93 102.79 430.12 104.31C430.89 105.3 431.66 106.28 432.45 107.3C435.79 110.83 438.82 112.7 443.67 113.36C444.5 113.35 445.33 113.33 446.19 113.31C447.03 113.31 447.87 113.3 448.73 113.3C451.28 113.13 451.28 113.13 454 111C454.36 109.02 454.36 109.02 454.19 106.88C454.13 105.6 454.06 104.32 454 103C453.27 102.71 452.54 102.42 451.79 102.12C447.52 100.41 443.29 98.63 439.06 96.81C438.18 96.45 437.3 96.09 436.39 95.72C430.57 93.18 426.46 90.41 423 85C421.35 80.05 421.41 75.75 423.44 70.94C426.59 65.26 431.54 62.11 437.64 60.15C446.73 58.19 457.36 58 465 64Z" fill="#463369"/>
<path d="M492.999 45C494.979 45.66 496.959 46.32 498.999 47C498.999 51.95 498.999 56.9 498.999 62C503.889 61.96 503.889 61.96 508.779 61.91C510.519 61.9 512.259 61.95 513.999 62C514.999 63 514.999 63 515.099 64.85C515.069 66.9 515.029 68.95 514.999 71C511.229 72.75 508.329 73.22 504.189 73.12C502.719 73.1 502.719 73.1 501.229 73.07C500.489 73.05 499.759 73.02 498.999 73C499.089 77.65 499.199 82.29 499.319 86.93C499.359 88.51 499.389 90.09 499.419 91.67C499.469 93.95 499.529 96.22 499.589 98.49C499.599 99.19 499.609 99.9 499.619 100.63C499.729 104.28 499.919 105.88 501.999 109C506.199 109.47 509.199 108.79 512.999 107C514.319 108.32 515.639 109.64 516.999 111C512.439 116.94 508.229 120.59 500.999 123C495.549 123.46 491.829 122.88 486.859 120.66C482.819 117.06 480.829 111.94 480.449 106.6C480.409 105.04 480.389 103.47 480.389 101.91C480.369 101.07 480.359 100.24 480.339 99.38C480.289 96.76 480.269 94.13 480.249 91.5C480.219 89.71 480.189 87.91 480.159 86.12C480.089 81.74 480.039 77.37 479.999 73C477.689 72.67 475.379 72.34 472.999 72C472.639 69.83 472.639 69.83 472.999 67C474.859 65.04 476.609 63.43 478.689 61.75C483.269 57.84 486.519 54.36 489.039 48.78C489.999 47 489.999 47 492.999 45Z" fill="#49386C"/>
<path d="M646 45.9999C647 46.9999 647 46.9999 647.1 50.3799C647.09 51.7699 647.08 53.1699 647.06 54.5599C647.06 55.2699 647.05 55.9799 647.05 56.7199C647.04 58.4799 647.02 60.2399 647 61.9999C648.06 61.9799 649.12 61.9499 650.21 61.9299C651.6 61.9099 652.99 61.8899 654.38 61.8799C655.42 61.8499 655.42 61.8499 656.49 61.8199C658.33 61.8099 660.17 61.8999 662 61.9999C664 63.9999 664 63.9999 664.12 67.6199C664.08 68.7399 664.04 69.8499 664 70.9999C660.41 73.2599 657.43 73.2099 653.25 73.1199C652.08 73.1099 650.91 73.0899 649.7 73.0699C648.81 73.0499 647.92 73.0199 647 72.9999C647.12 77.1599 647.24 81.3299 647.37 85.4899C647.42 86.8999 647.46 88.3199 647.5 89.7299C647.56 91.7699 647.62 93.8099 647.68 95.8499C647.72 97.0799 647.76 98.2999 647.79 99.5599C647.99 102.78 648.41 105.84 649 109C653.82 109.19 657.5 108.76 662 107C662.66 107.66 663.32 108.32 664 109C663.82 112.06 663.34 113.61 661.33 115.95C655.65 120.7 651.77 123.48 644.05 123.25C639.45 122.69 636.07 120.98 632.69 117.88C627.67 109.33 628.76 98.9999 628.88 89.4399C628.89 87.9399 628.89 86.4399 628.9 84.9399C628.92 81.2899 628.96 77.6499 629 73.9999C626.11 73.1699 624.11 72.9999 621 72.9999C620.5 70.4399 620.5 70.4399 621 66.9999C623.37 64.2799 626.02 62.0299 629 59.9999C629.66 59.9999 630.32 59.9999 631 59.9999C631.28 59.4399 631.56 58.8699 631.84 58.2899C633.03 55.9499 634.25 53.6199 635.5 51.3099C635.92 50.5199 636.35 49.7399 636.78 48.9299C639.11 45.2499 641.96 45.8299 646 45.9999Z" fill="#47356A"/>
<path d="M615 58.9999C616.27 65.7599 616.07 72.4499 616 79.3099C615.95 91.8799 615.95 91.8799 616.25 104.44C616.26 105.14 616.28 105.85 616.29 106.58C616.53 111.34 617.96 113.46 621 117C621 118.32 621 119.64 621 121C614.55 122.03 608.5 121.95 602 121.56C600.55 121.48 600.55 121.48 599.07 121.4C596.72 121.28 594.36 121.14 592 121C592 117 592 117 593.94 114.81C598.37 108.77 597.18 99.6199 597.19 92.3799C597.2 91.4699 597.21 90.5699 597.22 89.6399C597.24 84.3699 596.9 79.9399 595 74.9999C592.53 72.5699 592.53 72.5699 590 70.9999C591 67.9999 591 67.9999 593.98 66.2499C595.23 65.6299 596.49 65.0299 597.75 64.4399C598.37 64.1299 598.99 63.8299 599.63 63.5199C609.6 58.6899 609.6 58.6899 615 58.9999Z" fill="#45326D"/>
<path d="M762 58.9999C762.74 62.3099 763.11 65.3199 763.07 68.7099C763.05 70.0699 763.05 70.0699 763.04 71.4499C763.02 72.4199 763.01 73.3799 762.99 74.3799C762.97 76.4299 762.96 78.4899 762.94 80.5499C762.91 83.7799 762.87 87.0099 762.83 90.2399C762.79 93.3699 762.76 96.4999 762.74 99.6199C762.72 100.59 762.7 101.55 762.69 102.55C762.67 107.53 762.72 110.97 766 115C766.66 115.66 767.32 116.32 768 117C768 118.32 768 119.64 768 121C758.43 121 748.86 121 739 121C738.5 119.51 738.5 119.51 738 118C739.27 116.32 740.53 114.63 741.81 112.96C743.75 109.77 743.73 106.5 743.71 102.88C743.72 102.13 743.74 101.39 743.75 100.62C743.8 98.2699 743.8 95.9199 743.81 93.5599C743.84 91.9599 743.86 90.3499 743.89 88.7399C743.95 84.8299 743.98 80.9199 744 76.9999C743.34 76.6699 742.68 76.3399 742 75.9999C739.81 74.2499 739.81 74.2499 738 71.9999C737.84 69.6299 737.84 69.6299 739 66.9999C741.74 65.1399 744.7 63.9399 747.75 62.6899C748.97 62.1499 748.97 62.1499 750.21 61.5999C754.22 59.8799 757.55 58.4699 762 58.9999Z" fill="#463467"/>
<path d="M613 35.9999C616.21 39.2899 616.98 40.9699 617.06 45.5599C615.81 49.5999 614.23 51.3199 611 53.9999C607.48 55.7599 603.73 54.9199 600 53.9999C597.01 51.9899 595.37 50.6599 594.56 47.0699C594.34 43.3599 594.78 41.3699 596.69 38.1199C601.88 33.3499 606.62 33.2999 613 35.9999Z" fill="#43306B"/>
<path d="M758 36.0001C761.17 38.2501 761.89 39.6201 763 43.3801C763 47.8801 761.91 49.6201 759 53.0001C755.22 55.3901 752.43 55.1601 748.12 54.5301C744.95 53.7401 743.72 52.7901 742 50.0001C740.83 46.0801 740.62 43.0701 742 39.1901C746.82 33.9101 751.58 33.2201 758 36.0001Z" fill="#47356B"/>
<path d="M612.687 58.8125C613.447 58.8725 614.217 58.9325 614.997 59.0025C616.267 65.7625 616.067 72.4525 615.997 79.3125C615.947 91.8825 615.947 91.8825 616.247 104.432C616.267 105.142 616.277 105.853 616.297 106.583C616.527 111.333 617.957 113.462 620.997 117.002C620.997 118.322 620.997 119.642 620.997 121.002C614.557 122.022 608.507 121.952 601.997 121.562C600.547 121.482 600.547 121.483 599.077 121.403C596.717 121.272 594.357 121.142 591.997 121.002C591.997 117.002 591.997 117.002 593.937 114.812C598.047 109.213 597.107 101.862 596.937 95.1625C596.997 93.0025 596.997 93.0025 597.997 90.0025C598.217 88.1125 598.407 86.2125 598.567 84.3125C598.647 83.3225 598.727 82.3225 598.817 81.3025C598.877 80.5425 598.937 79.7825 598.997 79.0025C599.327 79.0025 599.657 79.0025 599.997 79.0025C600.047 83.3025 600.087 87.6125 600.107 91.9125C600.117 93.3825 600.137 94.8425 600.147 96.3025C600.177 98.4125 600.187 100.522 600.197 102.632C600.207 103.903 600.217 105.162 600.227 106.472C599.997 110.042 599.437 112.732 597.997 116.002C597.007 116.662 596.017 117.322 594.997 118.002C602.587 118.002 610.177 118.002 617.997 118.002C616.677 116.352 615.357 114.702 613.997 113.002C613.027 110.092 612.877 108.272 612.887 105.252C612.887 104.292 612.887 103.333 612.887 102.342C612.887 101.302 612.897 100.272 612.897 99.2025C612.907 98.1425 612.907 97.0825 612.907 95.9925C612.907 92.6025 612.927 89.2025 612.937 85.8125C612.947 83.5125 612.947 81.2125 612.947 78.9125C612.957 73.2725 612.977 67.6425 612.997 62.0025C612.227 62.3425 611.447 62.6725 610.647 63.0225C607.807 64.0725 606.767 64.0225 603.997 63.0025C604.987 62.6725 605.977 62.3425 606.997 62.0025C607.457 61.4825 607.907 60.9725 608.377 60.4325C609.997 59.0025 609.997 59.0025 612.687 58.8125Z" fill="#44355A"/>
<path d="M539 33C539.33 33 539.66 33 540 33C540 45.21 540 57.42 540 70C545.55 65.69 545.55 65.69 547.89 62.7C550.98 60.21 553.97 60.56 557.75 60.75C558.45 60.77 559.14 60.79 559.86 60.8C561.58 60.85 563.29 60.92 565 61C565 61.33 565 61.66 565 62C564.12 62.11 563.24 62.22 562.33 62.33C561.17 62.49 560.01 62.65 558.81 62.81C557.66 62.96 556.52 63.11 555.33 63.27C550.41 64.35 547.8 65.8 545 70C548.3 70 551.6 70 555 70C555 70.33 555 70.66 555 71C553.95 71.23 552.9 71.45 551.81 71.69C547.81 72.83 545.63 74.75 543 78C541.83 81.36 541.83 84.66 541.75 88.19C541.72 89.38 541.69 90.57 541.65 91.8C541.59 94.31 541.54 96.82 541.48 99.33C541.45 100.52 541.41 101.71 541.38 102.94C541.35 104.03 541.33 105.12 541.3 106.24C541 109 541 109 539 112C538.98 107.43 538.96 102.86 538.95 98.29C538.94 96.73 538.93 95.18 538.92 93.63C538.91 91.39 538.91 89.14 538.9 86.9C538.9 86.22 538.89 85.53 538.89 84.82C538.89 81.5 539.09 78.37 539.57 75.07C539.78 73.55 539.78 73.55 540 72C539.67 71.67 539.34 71.34 539 71C538.91 68.19 538.88 65.4 538.9 62.59C538.9 61.75 538.91 60.91 538.91 60.04C538.91 57.34 538.92 54.64 538.94 51.94C538.94 50.11 538.95 48.29 538.95 46.46C538.96 41.97 538.98 37.49 539 33Z" fill="#36284F"/>
<path d="M247 36C256.24 36 265.48 36 275 36C275.66 37.32 276.32 38.64 277 40C276.01 41.49 276.01 41.49 275 43C273.68 42.67 272.36 42.34 271 42C271.66 41.01 272.32 40.02 273 39C265.41 39 257.82 39 250 39C251.65 40.65 253.3 42.3 255 44C254.81 46.31 254.81 46.31 254 48C253.4 47.38 252.8 46.76 252.19 46.12C249.99 43.86 249.99 43.86 247 42C247 40.02 247 38.04 247 36Z" fill="#4B3D5F"/>
<path d="M282 78C282.66 78 283.32 78 284 78C284 96.15 284 114.3 284 133C283.67 133 283.34 133 283 133C282.5 135.48 282.5 135.48 282 138C281.67 138 281.34 138 281 138C280.79 94.37 280.79 94.37 282 78Z" fill="#4B3C61"/>
<path d="M575 68C575.99 68.33 576.98 68.66 578 69C579.91 74.69 580.28 79.91 580.2 85.88C580.19 86.68 580.19 87.49 580.19 88.33C580.18 90.89 580.15 93.44 580.12 96C580.11 97.75 580.11 99.49 580.1 101.24C580.08 105.49 580.04 109.75 580 114C578 113 578 113 577 110C576.86 107.34 576.77 104.7 576.72 102.04C576.69 100.87 576.69 100.87 576.66 99.68C576.6 97.18 576.55 94.68 576.5 92.19C576.43 88.91 576.36 85.63 576.28 82.36C576.26 81.23 576.26 81.23 576.24 80.09C576.14 75.97 575.79 72.04 575 68Z" fill="#4B3C61"/>
<path d="M189 36C200.55 36 212.1 36 224 36C224.66 37.32 225.32 38.64 226 40C225.67 40.66 225.34 41.32 225 42C224.01 41.67 223.02 41.34 222 41C222.33 40.34 222.66 39.68 223 39C212.44 39 201.88 39 191 39C191.33 39.99 191.66 40.98 192 42C191.01 42 190.02 42 189 42C189 40.02 189 38.04 189 36Z" fill="#493A5E"/>
<path d="M196.999 49C197.329 49 197.659 49 197.999 49C198.659 66.49 199.319 83.98 199.999 102C200.659 102 201.319 102 201.999 102C202.929 103.53 203.799 105.1 204.619 106.69C207.579 111.84 210.699 114.44 215.999 117C215.669 117.66 215.339 118.32 214.999 119C209.039 117.89 205.269 113.65 201.689 109C197.009 100.68 196.849 92 196.899 82.69C196.899 81.24 196.899 81.24 196.909 79.76C196.909 76.7 196.919 73.63 196.939 70.56C196.939 68.47 196.949 66.39 196.949 64.3C196.959 59.2 196.979 54.1 196.999 49Z" fill="#61536E"/>
<path d="M215 47C215.33 47 215.66 47 216 47C216.86 52.21 217.15 57.22 217.13 62.5C217.13 63.29 217.13 64.08 217.14 64.9C217.14 66.56 217.13 68.23 217.13 69.9C217.13 72.43 217.13 74.96 217.14 77.49C217.14 79.11 217.13 80.74 217.13 82.37C217.13 83.12 217.14 83.86 217.14 84.63C217.12 89.5 216.69 94.18 216 99C213.89 95.84 213.75 95.09 213.76 91.48C213.75 90.57 213.75 89.66 213.75 88.72C213.75 87.74 213.76 86.76 213.77 85.75C213.77 84.74 213.77 83.73 213.77 82.69C213.77 80.56 213.78 78.42 213.79 76.29C213.81 73.01 213.81 69.74 213.81 66.47C213.82 64.4 213.83 62.32 213.83 60.25C213.83 59.27 213.83 58.29 213.84 57.28C213.84 56.37 213.85 55.45 213.85 54.52C213.86 53.71 213.86 52.91 213.87 52.09C214 50 214 50 215 47Z" fill="#3B2D4A"/>
<path d="M425 99C431.25 105.08 431.25 105.08 433 108C432.67 108.99 432.34 109.98 432 111C431.1 109.79 431.1 109.79 430.19 108.56C428.19 105.78 428.19 105.78 425 105C424.67 105.33 424.34 105.66 424 106C424.2 112.07 424.2 112.07 427.56 117C428.37 117.66 429.17 118.32 430 119C426.42 118.7 425.24 118.26 422.75 115.56C419.85 111.32 419.88 109.14 420.48 104.13C421 102 421 102 423.06 99.94C423.7 99.63 424.34 99.32 425 99Z" fill="#3A2A4F"/>
<path d="M482 71C482.66 71 483.32 71 484 71C484.33 85.52 484.66 100.04 485 115C484.01 114.67 483.02 114.34 482 114C482 99.81 482 85.62 482 71Z" fill="#322249"/>
<path d="M299 76C299.33 76 299.66 76 300 76C299.98 77.17 299.95 78.35 299.93 79.56C299.78 90.54 300.44 101.13 302 112C298.67 108.89 297.11 107 296.85 102.32C296.83 98.88 296.81 95.44 296.81 92C296.8 90.8 296.79 89.6 296.78 88.36C296.77 87.21 296.77 86.06 296.77 84.88C296.77 83.82 296.76 82.77 296.76 81.68C297 79 297 79 299 76Z" fill="#45365B"/>
<path d="M661 64C661.99 64 662.98 64 664 64C664.04 66.33 664.04 68.67 664 71C663 72 663 72 659.18 72.1C657.6 72.09 656.02 72.08 654.44 72.06C650.26 72.03 650.26 72.03 646 72C646 82.56 646 93.12 646 104C645.67 104 645.34 104 645 104C644.98 99.32 644.96 94.64 644.95 89.96C644.94 88.36 644.93 86.77 644.92 85.17C644.91 82.89 644.91 80.6 644.9 78.32C644.9 77.6 644.89 76.88 644.89 76.14C644.89 74.43 644.94 72.71 645 71C646 70 646 70 649.38 69.9C650.77 69.91 652.17 69.92 653.56 69.94C654.27 69.94 654.98 69.95 655.72 69.95C657.48 69.96 659.24 69.98 661 70C661 68.02 661 66.04 661 64Z" fill="#33254B"/>
<path d="M725 75C725.33 75 725.66 75 726 75C726 76.06 726.01 77.13 726.01 78.23C726.03 82.19 726.09 86.15 726.15 90.11C726.18 91.82 726.19 93.53 726.2 95.24C726.2 97.71 726.25 100.17 726.29 102.64C726.29 103.4 726.29 104.16 726.28 104.94C726.39 109.03 726.74 110.71 729.54 113.77C730.35 114.51 731.17 115.24 732 116C732 117.32 732 118.64 732 120C722.76 120 713.52 120 704 120C704.33 119.34 704.66 118.68 705 118C713.25 118 721.5 118 730 118C728.35 116.02 726.7 114.04 725 112C724.4 109.87 724.4 109.87 724.43 107.92C724.43 107.18 724.43 106.44 724.43 105.68C724.46 104.9 724.49 104.12 724.51 103.32C724.52 102.51 724.53 101.69 724.53 100.86C724.56 98.28 724.62 95.7 724.69 93.12C724.71 91.37 724.74 89.61 724.76 87.86C724.81 83.57 724.9 79.29 725 75Z" fill="#2B1C46"/>
<path d="M492 46.9997C493.67 46.9597 495.33 46.9597 497 46.9997C498 47.9997 498 47.9997 498.1 51.3797C498.09 52.7697 498.08 54.1697 498.06 55.5597C498.06 56.2697 498.05 56.9797 498.05 57.7197C498.04 59.4797 498.02 61.2397 498 62.9997C499.61 62.9797 499.61 62.9797 501.25 62.9597C502.64 62.9597 504.04 62.9497 505.44 62.9397C506.14 62.9297 506.85 62.9197 507.58 62.9097C509.39 62.8997 511.19 62.9497 513 62.9997C514 63.9997 514 63.9997 514 70.9997C509.05 70.9997 504.1 70.9997 499 70.9997C499 70.6697 499 70.3397 499 69.9997C503.29 69.9997 507.58 69.9997 512 69.9997C512 68.3497 512 66.6997 512 64.9997C510.88 65.0197 510.88 65.0197 509.73 65.0397C508.75 65.0397 507.76 65.0497 506.75 65.0597C505.29 65.0797 505.29 65.0797 503.8 65.0997C501 64.9997 501 64.9997 497 63.9997C497 59.0497 497 54.0997 497 48.9997C495.02 49.3297 493.04 49.6597 491 49.9997C491.33 49.0097 491.66 48.0197 492 46.9997Z" fill="#2B1B48"/>
<path d="M540 30C541.86 31.86 541.24 34.96 541.32 37.45C541.34 38.1 541.36 38.75 541.38 39.42C541.44 41.51 541.5 43.6 541.56 45.69C541.61 47.08 541.65 48.47 541.69 49.86C541.87 55.57 542.03 61.28 542 67C542.99 66.01 543.98 65.02 545 64C545.66 64.33 546.32 64.66 547 65C545.38 66.71 543.71 68.37 542 70C541.34 70 540.68 70 540 70C539.67 57.79 539.34 45.58 539 33C536.03 33 533.06 33 530 33C533.08 29.92 535.81 29.78 540 30Z" fill="#51455F"/>
<path d="M670 47C670.66 47.33 671.32 47.66 672 48C672 68.79 672 89.58 672 111C671.01 111 670.02 111 669 111C669.33 110.34 669.66 109.68 670 109C670.12 107.15 670.18 105.3 670.21 103.45C670.24 101.71 670.24 101.71 670.27 99.93C670.28 98.67 670.3 97.41 670.32 96.12C670.34 94.83 670.36 93.55 670.38 92.22C670.43 88.81 670.48 85.39 670.53 81.98C670.58 78.49 670.64 75.01 670.69 71.52C670.8 64.68 670.9 57.84 671 51C670.34 51 669.68 51 669 51C669.33 49.68 669.66 48.36 670 47Z" fill="#5E5366"/>
<path d="M383.187 66.625C387.667 67.065 390.547 68.115 393.997 71.005C398.417 77.625 398.147 85.255 398.067 92.935C398.057 93.715 398.057 94.495 398.047 95.295C398.037 97.195 398.017 99.095 397.997 101.005C397.667 101.005 397.337 101.005 396.997 101.005C396.967 99.965 396.927 98.925 396.887 97.855C396.367 84.225 396.367 84.225 390.937 71.935C386.787 69.205 382.887 69.105 377.997 69.005C379.997 67.005 379.997 67.005 383.187 66.625Z" fill="#504062"/>
<path d="M613 36.0002C615.62 38.6902 615.62 38.6902 617 42.0002C616.83 45.4102 616.53 47.9502 615 51.0002C614.01 51.0002 613.02 51.0002 612 51.0002C612 50.0102 612 49.0202 612 48.0002C612.66 48.0002 613.32 48.0002 614 48.0002C613.71 43.2002 613.71 43.2002 611.5 39.0602C607.72 37.4502 604.05 37.7702 600 38.0002C600.33 37.0102 600.66 36.0202 601 35.0002C605.33 33.5602 608.79 34.3502 613 36.0002Z" fill="#443659"/>
<path d="M455 87C460.44 87.44 463.85 88.4 468 92C471.45 96.91 472.49 101.08 472 107C471.01 107 470.02 107 469 107C468.95 106.41 468.9 105.82 468.85 105.21C468.36 98.84 468.36 98.84 466 93C463.72 91.79 463.72 91.79 461 91C458.99 90.02 456.99 89.02 455 88C455 87.67 455 87.34 455 87Z" fill="#48385D"/>
<path d="M304 142C305.94 142.69 305.94 142.69 308 144C308.75 146.62 308.75 146.62 309 149C307.02 149 305.04 149 303 149C302.67 149.99 302.34 150.98 302 152C301.67 151.67 301.34 151.34 301 151C299.08 150.84 297.15 150.75 295.21 150.68C294.05 150.64 292.88 150.6 291.67 150.56C289.82 150.5 289.82 150.5 287.94 150.44C286.7 150.39 285.47 150.35 284.19 150.31C281.13 150.2 278.06 150.1 275 150C275 149.67 275 149.34 275 149C285.35 148.35 295.63 147.84 306 148C306 147.34 306 146.68 306 146C305.01 145.67 304.02 145.34 303 145C303.33 144.01 303.66 143.02 304 142Z" fill="#685B76"/>
<path d="M431 119C431.57 119.03 432.15 119.06 432.74 119.09C435.37 119.23 438 119.36 440.62 119.5C441.98 119.57 441.98 119.57 443.36 119.64C447.91 119.88 452.44 120.06 457 120C457 120.66 457 121.32 457 122C453.19 123.27 449.6 123.15 445.62 123.12C444.87 123.13 444.11 123.13 443.34 123.14C439.42 123.13 435.82 122.96 432 122C431.67 121.01 431.34 120.02 431 119Z" fill="#4F405F"/>
<path d="M396 61.0001C396.33 61.9901 396.66 62.9801 397 64.0001C396.09 63.8401 395.18 63.6701 394.25 63.5001C386.96 62.4601 379.2 62.4001 372 64.0001C372 63.3401 372 62.6801 372 62.0001C372.66 62.0001 373.32 62.0001 374 62.0001C374 61.3401 374 60.6801 374 60.0001C381.36 58.7501 388.84 58.6101 396 61.0001Z" fill="#48395D"/>
<path d="M669 112C669 115.58 667.91 117.05 666 120C669.9 119.89 673.79 119.76 677.69 119.62C679.34 119.58 679.34 119.58 681.03 119.53C682.1 119.49 683.16 119.45 684.26 119.41C685.24 119.38 686.22 119.35 687.23 119.32C690.12 118.99 692.36 118.2 695 117C694.67 118.32 694.34 119.64 694 121C689.92 121.2 685.83 121.38 681.75 121.56C680.59 121.62 679.43 121.67 678.24 121.73C677.12 121.78 676.01 121.83 674.86 121.88C673.32 121.95 673.32 121.95 671.75 122.02C669.24 122 667.33 121.91 665 121C663.75 118.44 663.75 118.44 663 116C663.8 115.53 664.61 115.05 665.44 114.56C667.85 113.23 667.85 113.23 669 112Z" fill="#5C4E6C"/>
<path d="M338 70C342.54 73.67 344.12 79.43 345 85C345.07 86.94 345.09 88.88 345.06 90.81C345.05 91.79 345.04 92.76 345.04 93.77C345.02 94.51 345.01 95.24 345 96C344.67 96 344.34 96 344 96C344 93.36 344 90.72 344 88C343.34 88 342.68 88 342 88C341.52 86.13 341.04 84.25 340.56 82.38C340.16 80.81 340.16 80.81 339.75 79.21C339.04 76.15 338.48 73.11 338 70Z" fill="#4E4161"/>
<path d="M299 68C301.4 67.93 303.54 67.88 305.88 68.5C308.22 69.14 308.22 69.14 311.62 68.94C315 69 315 69 317 71C316.26 71.06 315.53 71.12 314.77 71.18C313.79 71.27 312.82 71.35 311.81 71.44C310.85 71.52 309.89 71.6 308.89 71.68C306.01 71.94 306.01 71.94 303.25 72.62C302.51 72.75 301.76 72.87 301 73C299.19 71.56 299.19 71.56 298 70C298.33 69.34 298.66 68.68 299 68Z" fill="#352457"/>
<path d="M761 37.9999C761.29 40.3799 761.29 40.3799 761.19 43.1199C761.16 44.0399 761.13 44.9499 761.11 45.8799C761.07 46.5799 761.04 47.2799 761 47.9999C760.67 47.9999 760.34 47.9999 760 47.9999C759.92 46.9099 759.84 45.8099 759.75 44.6899C759.3 41.0999 759.3 41.0999 757.5 39.0599C753.72 37.4499 750.05 37.7699 746 37.9999C746.33 37.0099 746.66 36.0199 747 34.9999C751.74 32.6299 756.97 35.3099 761 37.9999Z" fill="#423457"/>
<path d="M688 79C688.98 81.93 689.1 83.74 689.06 86.79C689.05 87.73 689.05 88.67 689.04 89.64C689.01 91.61 688.99 93.57 688.96 95.54C688.91 101.45 689.23 107.13 690 113C688 112 688 112 687.39 110.34C686.9 107.38 686.78 104.49 686.68 101.48C686.64 100.23 686.6 98.98 686.56 97.7C686.52 96.39 686.48 95.09 686.44 93.75C686.39 92.43 686.35 91.12 686.31 89.76C686.2 86.51 686.1 83.25 686 80C686.66 79.67 687.32 79.34 688 79Z" fill="#5B4E6A"/>
<path d="M340 104C340.66 104 341.32 104 342 104C340.66 109.96 337.37 113.91 333 118C330.06 119.5 330.06 119.5 328 120C329.34 116.39 331.5 114.77 334.47 112.44C337.05 110.01 338.4 107.14 340 104Z" fill="#483959"/>
<path d="M297 116C298.65 116 300.3 116 302 116C302.33 117.32 302.66 118.64 303 120C301.68 120 300.36 120 299 120C299.33 125.94 299.66 131.88 300 138C299.01 137.67 298.02 137.34 297 137C297 130.07 297 123.14 297 116Z" fill="#4E415F"/>
<path d="M323 76C325.78 77.93 326.03 79.17 326.69 82.56C327.27 89 327.68 95.71 326 102C325.67 102 325.34 102 325 102C325.02 101.25 325.05 100.5 325.07 99.73C325.18 93.63 324.86 88.09 323.44 82.16C323 80 323 80 323 76Z" fill="#574966"/>
<path d="M413 82C416 85 416 85 416.4 87.81C416.39 88.86 416.38 89.92 416.38 91C416.38 92.05 416.39 93.1 416.4 94.19C416 97 416 97 413 100C413 94.06 413 88.12 413 82Z" fill="#453759"/>
<path d="M557.687 60.875C558.387 60.885 559.087 60.895 559.817 60.905C561.547 60.925 563.267 60.965 564.997 60.995C564.997 61.335 564.997 61.655 564.997 61.995C563.677 62.165 563.677 62.165 562.327 62.335C561.167 62.495 560.007 62.645 558.807 62.815C557.667 62.965 556.517 63.115 555.327 63.265C550.557 64.315 547.267 66.395 543.997 69.995C543.337 69.665 542.677 69.345 541.997 68.995C546.907 62.905 549.597 60.675 557.687 60.875Z" fill="#3A2A57"/>
<path d="M595 41C595.33 41 595.66 41 596 41C596.08 41.91 596.16 42.82 596.25 43.75C597.1 47.44 598.26 48.52 601 51C601 51.66 601 52.32 601 53C604.3 53 607.6 53 611 53C609 55 609 55 607.01 55.15C602.88 54.77 600.44 54.3 596.94 51.94C594.31 47.96 594.6 45.69 595 41Z" fill="#5C4D6A"/>
<path d="M280 138C280 142 278.27 143.8 276 147C278.64 147.33 281.28 147.66 284 148C284 148.33 284 148.66 284 149C280.37 149 276.74 149 273 149C273 144 273 144 274.53 142.2C275.18 141.7 275.83 141.2 276.5 140.69C277.15 140.18 277.8 139.66 278.47 139.14C278.97 138.76 279.48 138.39 280 138Z" fill="#514361"/>
<path d="M425 99C426.32 99.99 427.64 100.98 429 102C428.67 102.66 428.34 103.32 428 104C426.35 104 424.7 104 423 104C422.67 106.97 422.34 109.94 422 113C420 111 420 111 419.88 108.94C420.54 102.46 420.54 102.46 423.06 99.94C423.7 99.63 424.34 99.32 425 99Z" fill="#594B69"/>
<path d="M745 36C746.32 36.66 747.64 37.32 749 38C748.04 38.31 748.04 38.31 747.06 38.62C744.7 39.87 744.7 39.87 744.25 42.81C744.03 45.56 743.92 48.24 744 51C743.34 50.67 742.68 50.34 742 50C740.5 43.07 740.5 43.07 742.38 39.06C744 37 744 37 745 36Z" fill="#4E3F62"/>
<path d="M687 29C687.37 30.58 687.72 32.16 688.06 33.75C688.26 34.63 688.46 35.51 688.66 36.42C689 38.99 688.81 40.57 688 43C687.34 43 686.68 43 686 43C686 39.04 686 35.08 686 31C684.35 31 682.7 31 681 31C684.75 29 684.75 29 687 29Z" fill="#4D3F61"/>
<path d="M689 68C689.33 68.66 689.66 69.32 690 70C690.99 70 691.98 70 693 70C693.33 70.99 693.66 71.98 694 73C690.79 78.74 690.79 78.74 687 80C688.07 77.08 688.78 75.22 691 73C688.52 72.01 688.52 72.01 686 71C686 70.34 686 69.68 686 69C686.99 68.67 687.98 68.34 689 68Z" fill="#3A2A57"/>
<path d="M599 79C599.33 79 599.66 79 600 79C600.06 82.25 600.09 85.5 600.12 88.75C600.14 89.67 600.16 90.59 600.18 91.54C600.18 92.43 600.19 93.32 600.2 94.23C600.21 95.05 600.22 95.87 600.23 96.71C599.98 99.22 599.26 100.83 598 103C597.8 101.4 597.62 99.79 597.44 98.19C597.33 97.29 597.23 96.4 597.12 95.48C597 93 597 93 598 90C598.22 88.11 598.41 86.21 598.56 84.31C598.65 83.32 598.73 82.32 598.82 81.3C598.88 80.54 598.94 79.78 599 79Z" fill="#2F2049"/>
<path d="M661 107C661.66 107.33 662.32 107.66 663 108C662.62 110.44 662.62 110.44 662 113C661.01 113.5 661.01 113.5 660 114C659.67 113.34 659.34 112.68 659 112C656.69 112 654.38 112 652 112C653.32 111.67 654.64 111.34 656 111C656 110.34 656 109.68 656 109C658.38 107.94 658.38 107.94 661 107Z" fill="#3F3256"/>
<path d="M424 70C424.66 70.99 425.32 71.98 426 73C425.34 73 424.68 73 424 73C424 76.63 424 80.26 424 84C424.66 84 425.32 84 426 84C426.33 85.65 426.66 87.3 427 89C423.37 85.61 422.09 83.7 421.81 78.62C421.99 75.21 422.53 73.04 424 70Z" fill="#5F506C"/>
<path d="M640 120C643.96 120 647.92 120 652 120C650 123 650 123 648.12 123.4C647.07 123.39 647.07 123.39 646 123.38C645.3 123.38 644.6 123.39 643.88 123.4C642 123 642 123 640 120Z" fill="#4E3E5F"/>
<path d="M433.25 63.3127C433.83 63.5427 434.4 63.7627 435 64.0027C431.83 67.5327 429.83 69.5827 425 70.0027C426.59 66.1527 428.67 62.6727 433.25 63.3127Z" fill="#47385E"/>
<path d="M224 109C229.28 109.99 234.56 110.98 240 112C240 112.33 240 112.66 240 113C234.56 113.89 230.12 114.56 225 112C224.67 111.01 224.34 110.02 224 109Z" fill="#564867"/>
<path d="M467 71C467.33 71 467.66 71 468 71C468 74.3 468 77.6 468 81C467.01 81.33 466.02 81.66 465 82C464.01 81.34 463.02 80.68 462 80C462 79.01 462 78.02 462 77C463.32 77 464.64 77 466 77C466.33 75.02 466.66 73.04 467 71Z" fill="#45345A"/>
<path d="M256 117C254.59 117.87 253.17 118.72 251.75 119.56C250.96 120.04 250.17 120.51 249.36 121C246.69 122.13 245.65 122.02 243 121C244.41 120.13 245.83 119.28 247.25 118.44C248.04 117.96 248.83 117.49 249.64 117C252.31 115.87 253.35 115.98 256 117Z" fill="#514360"/>
<path d="M631 111C631.66 111 632.32 111 633 111C633.43 111.93 633.87 112.86 634.31 113.81C635.72 116.47 636.76 118.08 639 120C635.94 119.67 634.4 119.4 632.19 117.19C631 115 631 115 631 111Z" fill="#463757"/>
<path d="M445 96C446.32 96.59 447.63 97.2 448.94 97.81C450.03 98.32 450.03 98.32 451.15 98.83C453 100 453 100 454 103C449.96 101.41 445.98 99.72 442 98C442.99 97.34 443.98 96.68 445 96Z" fill="#524261"/>
<path d="M485 56C485 59.78 484 60.46 481.5 63.19C480.85 63.9 480.2 64.62 479.53 65.36C479.03 65.9 478.52 66.44 478 67C477.01 66.34 476.02 65.68 475 65C478.3 62.03 481.6 59.06 485 56Z" fill="#594A69"/>
<path d="M524 36C523.67 36.99 523.34 37.98 523 39C522.01 39 521.02 39 520 39C520.33 40.98 520.66 42.96 521 45C520.01 45.5 520.01 45.5 519 46C519 45.34 519 44.68 519 44C518.34 43.67 517.68 43.34 517 43C517.25 40.62 517.25 40.62 518 38C520.15 36.54 521.4 36 524 36Z" fill="#584A69"/>
<path d="M396 101C397.19 102.62 397.19 102.62 398 105C396.72 108.77 395.9 110.54 392.31 112.38C391.55 112.58 390.79 112.79 390 113C390.62 112.13 391.24 111.27 391.88 110.38C393.85 107.24 394.99 104.54 396 101Z" fill="#5A4C6B"/>
<path d="M424 103C429.47 103.49 429.47 103.49 431.94 105.88C432.29 106.58 432.64 107.28 433 108C432.67 108.99 432.34 109.98 432 111C431.1 109.79 431.1 109.79 430.19 108.56C428.19 105.78 428.19 105.78 425 105C424.01 105.5 424.01 105.5 423 106C423.33 105.01 423.66 104.02 424 103Z" fill="#41325A"/>
<path d="M591 68C591.66 68.33 592.32 68.66 593 69C592.67 69.66 592.34 70.32 592 71C592.66 71 593.32 71 594 71C594.33 70.01 594.66 69.02 595 68C595.66 68 596.32 68 597 68C596.84 68.76 596.67 69.53 596.5 70.31C595.91 73.04 595.91 73.04 596 76C595.57 75.55 595.13 75.09 594.69 74.62C592.89 72.8 592.89 72.8 590 71C590.33 70.01 590.66 69.02 591 68Z" fill="#584773"/>
<path d="M698.25 61.6875C699.16 61.7875 700.07 61.8975 701 61.9975C700.22 62.6175 699.43 63.2375 698.63 63.8775C696.03 65.8975 696.03 65.8975 694 67.9975C693.01 67.6675 692.02 67.3375 691 66.9975C694.2 62.0775 694.2 62.0775 698.25 61.6875Z" fill="#41315A"/>
<path d="M403 117C401.23 119.14 400.12 119.96 397.44 120.81C396.63 120.87 395.83 120.94 395 121C394.34 120.34 393.68 119.68 393 119C396.64 116.57 398.71 116.84 403 117Z" fill="#4B3A64"/>
<path d="M686 108C686.66 108 687.32 108 688 108C688.06 108.6 688.12 109.2 688.19 109.81C689.32 112.87 691.17 113.55 694 115C693.67 116.32 693.34 117.64 693 119C686.29 112.86 686.29 112.86 686 108Z" fill="#3D2D53"/>
<path d="M526 112C526 112.66 526 113.32 526 114C524.35 115.35 522.68 116.69 521 118C520.67 118.66 520.34 119.32 520 120C519.34 120 518.68 120 518 120C518 118.68 518 117.36 518 116C522.11 112 522.11 112 526 112Z" fill="#45365A"/>
<path d="M715 62C720.45 62.48 720.45 62.48 722.94 64.81C724 67 724 67 723.69 69.25C723.46 69.83 723.23 70.4 723 71C719 66.25 719 66.25 719 64C717.68 63.67 716.36 63.34 715 63C715 62.67 715 62.34 715 62Z" fill="#3A2B50"/>
<path d="M253 106C252.88 107.88 252.88 107.88 252 110C248.94 111.25 248.94 111.25 246 112C245.67 111.34 245.34 110.68 245 110C250.75 106 250.75 106 253 106Z" fill="#45365B"/>
<path d="M688 79C689.14 82.42 689.1 85.09 689.06 88.69C689.05 89.87 689.04 91.05 689.04 92.26C689.02 93.17 689.01 94.07 689 95C688.34 95 687.68 95 687 95C686.67 90.05 686.34 85.1 686 80C686.66 79.67 687.32 79.34 688 79Z" fill="#504260"/>
<path d="M371 64.0002C368.36 65.9802 365.72 67.9602 363 70.0002C362.34 69.6702 361.68 69.3402 361 69.0002C365.84 62.7102 365.84 62.7102 371 64.0002Z" fill="#3C2E51"/>
<path d="M534 33.0002C526.5 38.0002 526.5 38.0002 524 38.0002C524 37.0102 524 36.0202 524 35.0002C527.4 32.9102 530.05 32.8202 534 33.0002Z" fill="#413157"/>
<path d="M298 137C301.57 138.88 303.55 140.17 305 144C302.62 143.31 302.62 143.31 300 142C298.69 139.38 298.69 139.38 298 137Z" fill="#423456"/>
<path d="M560 71.9999C559.67 72.6599 559.34 73.3199 559 73.9999C557.54 73.8599 556.08 73.7099 554.62 73.5599C553.41 73.4399 553.41 73.4399 552.16 73.3199C550 72.9999 550 72.9999 548 71.9999C552.78 70.3099 555.45 69.5199 560 71.9999Z" fill="#574869"/>
<path d="M277 67C277.66 67.33 278.32 67.66 279 68C279 69.32 279 70.64 279 72C277.68 72.33 276.36 72.66 275 73C274.67 71.35 274.34 69.7 274 68C274.99 67.67 275.98 67.34 277 67Z" fill="#403253"/>
<path d="M709 59.9999C712.31 59.8099 712.31 59.8099 716 59.9999C716.99 60.9899 717.98 61.9799 719 62.9999C715.7 62.6699 712.4 62.3399 709 61.9999C709 61.3399 709 60.6799 709 59.9999Z" fill="#514265"/>
<path d="M562 111C562.33 111.66 562.66 112.32 563 113C563.66 113.33 564.32 113.66 565 114C561.38 117 561.38 117 558 117C559.15 114.53 560.05 112.95 562 111Z" fill="#51406A"/>
<path d="M739 67C740.98 67.5 740.98 67.5 743 68C742.67 69.32 742.34 70.64 742 72C740.68 72 739.36 72 738 72C738.33 70.35 738.66 68.7 739 67Z" fill="#443757"/>
<path d="M487 55C487.66 55 488.32 55 489 55C487.73 58.91 486.49 60.79 483 63C482.34 62.67 481.68 62.34 481 62C481.95 60.83 482.91 59.66 483.88 58.5C484.41 57.85 484.94 57.2 485.49 56.53C486.24 55.77 486.24 55.77 487 55Z" fill="#312056"/>
<path d="M297 116C298.65 116 300.3 116 302 116C302.33 117.32 302.66 118.64 303 120C301.35 120 299.7 120 298 120C297.67 118.68 297.34 117.36 297 116Z" fill="#53436A"/>
<path d="M704 73C706.38 73.69 706.38 73.69 709 75C710.31 77.62 710.31 77.62 711 80C710.01 80 709.02 80 708 80C706.45 77.74 705.22 75.45 704 73Z" fill="#534568"/>
<path d="M334 64C336.06 66.31 336.06 66.31 338 69C337.67 69.99 337.34 70.98 337 72C335.29 70.38 333.63 68.71 332 67C332 66.34 332 65.68 332 65C332.66 64.67 333.32 64.34 334 64Z" fill="#403154"/>
<path d="M725 106C725.33 106 725.66 106 726 106C726.1 106.76 726.21 107.53 726.31 108.31C727.04 111.17 727.77 112.16 730 114C729.34 114.66 728.68 115.32 728 116C725.65 113.45 725.02 112.29 724.81 108.75C724.87 107.84 724.94 106.93 725 106Z" fill="#3B2C56"/>
<path d="M218 102C222.88 106.75 222.88 106.75 224 109C221.13 108.43 220.14 108.14 218 106C218 104.68 218 103.36 218 102Z" fill="#4E3E5F"/>
<path d="M594 66C595.98 66 597.96 66 600 66C598 68 598 68 595 69C594.67 69.66 594.34 70.32 594 71C593.34 71 592.68 71 592 71C592.66 69.35 593.32 67.7 594 66Z" fill="#3B2B4F"/>
<path d="M520 46C520.66 46.66 521.32 47.32 522 48C520.68 47.67 519.36 47.34 518 47C518.66 46.67 519.32 46.34 520 46Z" fill="#61517C"/>
<path d="M421 66C421.99 66.5 421.99 66.5 423 67C422.01 67.5 422.01 67.5 421 68C421 67.34 421 66.68 421 66Z" fill="#64527D"/>
<path d="M338 64C338.66 64 339.32 64 340 64C339.67 64.66 339.34 65.32 339 66C338.67 65.34 338.34 64.68 338 64Z" fill="#63537A"/>
<path d="M466 89C468 90 468 90 468 90L466 89Z" fill="#5F4F7D"/>
<path d="M741 64C743 65 743 65 743 65L741 64Z" fill="#625273"/>
<path d="M648 60C650 61 650 61 650 61L648 60Z" fill="#5C4D78"/>
<path d="M613 57C615 58 615 58 615 58L613 57Z" fill="#61507A"/>
<path d="M81.3744 0.0430715C104.435 -0.632079 125.905 6.6478 142.914 20.6322C159.435 34.6812 168.956 53.8437 169.754 74.3331C170.053 93.4604 162.098 112.042 148.271 126.384C147.745 126.948 147.219 127.517 146.674 128.098C133.965 141.349 113.781 151.224 94.3694 152.803C69.2172 154.054 47.3251 148.142 28.3295 132.877C25.2058 130.3 22.3743 127.564 19.6857 124.623C19.2636 124.165 19.2636 124.165 18.8285 123.701C5.28799 108.866 -1.68032 88.3879 0.345876 69.2137C1.98892 55.8046 6.80114 42.7537 15.7892 31.8632C16.1658 31.3876 16.5425 30.918 16.9256 30.4366C23.6082 22.4639 31.6805 15.9062 41.1167 10.7281C41.5193 10.505 41.9155 10.2819 42.3311 10.0529C51.5659 5.06266 61.6904 2.26813 72.289 0.747576C72.8215 0.665384 73.354 0.589062 73.8996 0.512741C76.3868 0.225068 78.8741 0.154618 81.3744 0.0430715ZM32.6742 28.3407C32.0962 28.8338 31.5182 29.3328 30.9272 29.8436C30.4337 30.3133 29.9336 30.7888 29.427 31.2761C28.9335 31.734 28.9335 31.734 28.4269 32.2037C15.0293 45.284 9.79498 62.7733 10.4964 80.245C11.6523 97.9868 21.056 113.333 34.6224 125.797C35.064 126.208 35.5056 126.625 35.9602 127.048C50.0462 139.312 69.6393 144.255 88.6804 144.091C90.9859 144.249 90.9859 144.249 91.7717 143.41C92.5055 143.427 93.2459 143.445 94.0057 143.463C97.3307 143.492 100.279 142.782 103.461 141.942C104.052 141.783 104.65 141.625 105.26 141.466C114.852 138.836 124.145 134.316 132.036 128.733C132.036 128.345 132.036 127.958 132.036 127.558C132.4 127.412 132.77 127.265 133.153 127.118C144.433 121.511 152.473 106.693 155.98 95.9614C156.474 94.3645 156.922 92.7676 157.363 91.159C157.513 90.6189 157.669 90.0787 157.825 89.5269C158.214 87.9124 158.461 86.339 158.662 84.701C158.734 84.0846 158.734 84.0846 158.812 83.4623C160.812 65.8027 155.766 49.0237 143.563 35.0922C142.751 34.2057 141.94 33.325 141.128 32.4503C140.478 31.6988 140.478 31.6988 139.816 30.9356C137.894 28.8103 135.673 27.1371 133.335 25.4052C132.504 24.7829 132.503 24.7829 131.653 24.1489C102.559 3.44231 59.2291 4.93938 32.6742 28.3407Z" fill="#45326A"/>
<path d="M150.868 89.3949C148.043 103.068 141.23 117.475 128.138 125.794C127.71 125.794 127.281 125.794 126.839 125.794C126.839 126.182 126.839 126.569 126.839 126.968C124.573 128.489 122.118 129.763 119.696 131.078C119.202 131.348 118.702 131.618 118.195 131.894C103.544 139.567 85.51 142.256 69.0211 138.44C51.4347 134.084 37.2903 125.019 28.0035 110.6C24.133 104.377 19.639 96.7511 20.3339 89.3949C20.9833 88.8078 20.9833 88.8078 22.8926 88.7491C24.055 88.7608 24.055 88.7608 25.2435 88.7726C26.4125 88.7784 26.4125 88.7784 27.6009 88.7843C28.2049 88.7961 28.8088 88.8019 29.4258 88.8078C29.6011 89.4184 29.7765 90.0289 29.9518 90.663C32.4651 99.0994 35.985 106.826 42.4142 113.465C42.7519 113.853 43.0896 114.24 43.4338 114.64C51.8569 124.057 65.6701 129.704 78.7819 131.078C93.7706 132.012 108.675 128.824 120.52 120.158C130.593 112.168 138.191 102.651 140.269 90.4282C140.477 89.3949 140.477 89.3949 141.127 88.8078C142.146 88.6375 143.179 88.5084 144.211 88.4027C144.77 88.344 145.328 88.2794 145.906 88.2148C147.842 88.2207 149.127 88.6552 150.868 89.3949Z" fill="#463369"/>
<path d="M130.82 35.5157C132.326 36.0793 133.417 36.7486 134.632 37.729C134.846 38.3102 135.061 38.8914 135.281 39.4903C133.632 42.185 131.489 44.1635 128.949 46.1713C128.255 46.7349 127.553 47.2985 126.858 47.8621C126.521 48.1381 126.183 48.4081 125.839 48.6899C124.559 49.7467 123.345 50.8504 122.131 51.9659C120.572 53.4042 118.974 54.7604 117.286 56.0755C112.98 59.4571 108.869 63.0325 104.739 66.5843C103.654 67.5061 102.557 68.4043 101.446 69.2908C98.7513 71.3573 98.7513 71.3573 97.342 74.1519C97.3745 75.3202 97.4914 76.4885 97.6148 77.6509C96.6536 81.6372 94.4586 84.0854 90.6724 86.3105C86.698 88.2596 82.73 87.8134 78.2944 87.4142C74.9434 85.8995 73.2224 83.6157 71.6378 80.5864C71.2222 78.6255 71.2222 78.6255 70.9884 76.6235C70.6832 74.0169 70.4624 72.6078 68.1894 70.8994C67.8127 70.6763 67.4426 70.4532 67.0594 70.2243C65.3384 69.1499 64.0006 67.8524 62.5459 66.4963C61.1042 65.1753 59.6495 63.8544 58.2013 62.5334C57.8246 62.187 57.4479 61.8465 57.0583 61.4884C55.123 59.6567 55.123 59.6567 52.8046 58.277C52.8046 57.8896 52.8046 57.5021 52.8046 57.1029C52.4409 56.962 52.0772 56.8211 51.7005 56.6743C49.9016 55.7761 48.5703 54.7134 47.0831 53.4336C46.5571 52.9991 46.0311 52.5588 45.4856 52.1068C44.3621 50.6449 44.3621 50.6449 44.4465 48.8015C45.1154 46.823 45.7258 45.96 47.6092 44.774C50.4666 44.956 51.9993 45.9893 54.1424 47.639C54.7658 48.1146 55.3893 48.5901 56.0322 49.0833C58.3571 50.915 60.6171 52.7995 62.8771 54.6958C65.5787 56.962 68.3972 59.0814 71.2677 61.1714C72.9367 62.3867 72.9367 62.3867 74.7681 64.0188C77.3333 65.6391 79.0737 65.5276 82.0286 65.1401C85.3796 64.7585 87.9319 64.7115 91.1205 65.9092C91.6531 65.463 92.1921 65.0168 92.7376 64.553C97.9784 60.1733 103.232 55.7995 108.616 51.5666C110.714 49.9169 112.772 48.232 114.824 46.5353C117.721 44.1576 120.611 41.7799 123.592 39.4903C124.098 39.1028 124.598 38.7094 125.118 38.3043C125.631 37.9227 126.15 37.5411 126.676 37.1419C127.144 36.7955 127.605 36.4433 128.086 36.0793C129.437 35.3806 129.437 35.3806 130.82 35.5157ZM80.2427 72.508C78.9503 74.1578 79.0478 75.5844 79.1192 77.557C79.3465 79.0364 79.3465 79.0364 81.1779 80.3691C83.4963 81.238 84.2756 81.4083 86.5746 80.5864C88.0942 79.7879 88.9515 79.2067 89.7827 77.7977C89.8477 75.7311 88.867 74.1989 87.8734 72.3671C86.8473 71.4395 85.8018 71.6626 84.386 71.6333C83.8665 71.6215 83.3534 71.6039 82.8274 71.5922C81.3467 71.6861 81.3467 71.6861 80.2427 72.508Z" fill="#45336A"/>
<path d="M37.2185 88.8076C40.0046 88.8076 42.7906 88.8076 45.661 88.8076C45.8429 89.3712 46.0247 89.929 46.2131 90.5043C47.908 95.5415 49.9278 99.8155 53.4541 104.072C53.8243 104.53 54.1945 104.988 54.5776 105.457C60.6367 112.244 69.917 116.6 79.4311 117.575C90.3219 118.232 99.0112 116.495 108.655 111.704C108.655 111.123 108.655 110.542 108.655 109.943C109.097 109.931 109.538 109.919 109.993 109.908C115.299 108.375 118.448 102.951 120.994 98.7881C122.689 95.518 123.793 92.289 124.891 88.8076C128.105 88.8076 131.32 88.8076 134.632 88.8076C133.08 100.039 126.573 109.667 117.098 116.988C105.401 124.802 91.5038 127.767 77.1386 126.205C68.6376 124.984 61.4355 122.319 54.74 117.346C53.084 116.131 51.35 115.092 49.5576 114.052C48.9147 114.346 48.9147 114.346 48.2587 114.639C48.2003 113.859 48.2003 113.859 48.1353 113.06C47.7912 111.046 47.7912 111.046 46.1156 109.784C44.2063 108.041 42.9659 106.226 41.7255 104.072C41.5047 103.69 41.2774 103.309 41.0501 102.909C38.5109 98.4006 36.095 93.8859 37.2185 88.8076Z" fill="#453269"/>
<path d="M61.8971 88.8078C62.7998 90.2403 62.7998 90.2403 63.644 92.072C65.5469 95.753 67.9173 98.2599 71.6385 100.55C72.0671 100.55 72.4957 100.55 72.9373 100.55C72.9373 100.937 72.9373 101.324 72.9373 101.724C80.8992 104.307 89.1729 105.117 97.0439 101.906C103.155 98.8998 106.759 94.5554 109.305 88.8078C112.091 88.8078 114.877 88.8078 117.747 88.8078C118.748 92.4184 116.975 94.9722 115.15 98.2012C109.617 106.08 101.921 110.107 92.0953 112.45C83.0748 114.152 73.4763 112.068 65.7936 107.595C64.9429 107.189 64.0922 106.784 63.2349 106.385C61.2412 105.246 60.7866 104.794 59.9488 102.898C59.3059 102.51 58.663 102.123 58.0006 101.724C57.1433 100.309 56.377 98.9292 55.6496 97.4673C55.4418 97.0798 55.2405 96.6982 55.0327 96.299C53.8637 94.0152 53.052 91.9311 52.8052 89.3949C53.8053 88.4908 54.8703 88.5847 56.2536 88.4438C56.7602 88.3851 57.2667 88.3264 57.7927 88.2735C59.4163 88.2148 60.4164 88.1855 61.8971 88.8078Z" fill="#443269"/>
<path d="M87.8739 158.084C89.9845 159.646 90.9781 160.462 91.2833 162.91C91.134 165.352 90.6404 166.673 89.0493 168.687C86.9322 170.008 85.8477 170.09 83.3279 169.826C83.1136 170.213 82.8993 170.601 82.6785 171C82.0356 171 81.3926 171 80.7302 171C80.5549 170.554 80.3795 170.102 80.2042 169.644C79.5872 168.059 79.5872 168.059 78.3793 167.296C77.0934 165.869 77.2558 164.519 77.3467 162.74C77.5221 161.266 77.7364 160.421 78.7819 159.258C81.7953 157.38 84.4514 156.963 87.8739 158.084Z" fill="#433167"/>
<path d="M138.529 71.7824C140.899 71.7647 143.263 71.753 145.634 71.7471C146.647 71.7354 146.647 71.7354 147.679 71.7295C148.322 71.7295 148.965 71.7295 149.628 71.7236C150.517 71.7178 150.517 71.7178 151.433 71.7178C152.816 71.7824 152.816 71.7824 153.466 72.3694C153.55 73.5319 153.583 74.6943 153.589 75.8567C153.596 76.4908 153.609 77.1248 153.615 77.7765C153.466 79.4145 153.466 79.4145 152.167 80.5887C149.296 81.2168 146.731 81.164 143.802 80.9174C143.055 80.8587 142.309 80.8 141.536 80.7354C140.971 80.6885 140.412 80.6415 139.828 80.5887C139.613 80.9761 139.399 81.3636 139.178 81.7628C137.977 79.9135 137.717 78.575 137.756 76.4438C137.763 75.9389 137.769 75.434 137.769 74.9174C137.879 73.5436 137.879 73.5436 138.529 71.7824Z" fill="#43316A"/>
<path d="M20.9019 71.7043C21.5383 71.7043 22.1813 71.7043 22.8372 71.7043C23.5126 71.7043 24.188 71.7043 24.8764 71.7102C25.8895 71.7043 25.8895 71.7043 26.9221 71.7043C27.5585 71.7043 28.2014 71.7043 28.8573 71.7043C29.4483 71.7043 30.0393 71.7043 30.6498 71.7043C32.02 71.7806 32.02 71.7806 32.6695 72.3677C32.7344 73.3247 32.7539 74.2758 32.7539 75.2327C32.7539 76.0077 32.7539 76.0077 32.7604 76.8061C32.6695 78.2386 32.6695 78.2386 32.02 79.9999C30.5134 80.6809 29.6237 80.6633 27.9417 80.6691C27.1234 80.6691 27.1234 80.6691 26.2856 80.6691C25.4284 80.6633 25.4284 80.6633 24.5517 80.6633C23.9802 80.6633 23.4087 80.6691 22.8242 80.6691C22.2787 80.6691 21.7267 80.6691 21.1682 80.6691C20.6616 80.6633 20.1616 80.6633 19.642 80.6633C18.3821 80.5869 18.3821 80.5869 17.0833 79.9999C16.1222 77.3756 16.5962 75.039 17.0833 72.3677C18.1613 71.399 19.4277 71.7043 20.9019 71.7043Z" fill="#493869"/>
<path d="M63.1956 154.561C65.7154 156.405 66.9622 157.667 67.3389 160.579C67.0272 163.397 66.1375 164.413 63.845 166.303C60.7732 167.272 58.3574 166.879 55.4025 165.716C53.6101 163.421 52.9412 161.454 53.4542 158.671C55.9091 155.143 58.5717 153.828 63.1956 154.561Z" fill="#422F6A"/>
<path d="M111.902 154.561C114.091 155.794 115.728 156.98 116.448 159.258C116.396 161.782 116.078 163.033 114.377 165.058C112.325 166.456 111.214 166.843 108.655 166.89C106.506 166.426 105.519 165.81 103.908 164.43C102.486 162.287 102.382 161.137 102.811 158.671C105.187 155.131 107.383 154.215 111.902 154.561Z" fill="#44316A"/>
<path d="M87.8735 16.0091C88.3022 16.2028 88.7308 16.3965 89.1724 16.5961C89.1919 18.5394 89.2049 20.4827 89.2114 22.4318C89.2178 22.9837 89.2243 23.5414 89.2308 24.1109C89.2308 24.6392 89.2308 25.1676 89.2373 25.7136C89.2373 26.2009 89.2438 26.6882 89.2438 27.1931C89.1724 28.3379 89.1724 28.3379 88.523 28.925C87.3215 29.06 86.1201 29.1657 84.9122 29.2537C83.925 29.3301 83.925 29.3301 82.9184 29.4064C82.4119 29.4416 81.9053 29.4768 81.3793 29.5121C80.2753 27.5101 80.5805 25.2968 80.5675 23.0893C80.5545 22.6079 80.5416 22.1206 80.5286 21.6216C80.5221 21.1578 80.5221 20.694 80.5156 20.2126C80.5091 19.784 80.5026 19.3613 80.4961 18.921C81.2299 15.2811 84.6394 15.8212 87.8735 16.0091Z" fill="#422E6F"/>
<path d="M87.8735 16.0091C88.3022 16.2028 88.7308 16.3965 89.1724 16.5961C89.1919 18.5394 89.2049 20.4827 89.2114 22.4318C89.2178 22.9837 89.2243 23.5414 89.2308 24.1109C89.2308 24.6392 89.2308 25.1676 89.2373 25.7136C89.2373 26.2009 89.2438 26.6882 89.2438 27.1931C89.1724 28.3379 89.1724 28.3379 88.523 28.925C87.3215 29.06 86.1201 29.1657 84.9122 29.2537C83.925 29.3301 83.925 29.3301 82.9184 29.4064C82.4119 29.4416 81.9053 29.4768 81.3793 29.5121C80.2753 27.5101 80.5805 25.2968 80.5675 23.0893C80.5545 22.6079 80.5416 22.1206 80.5286 21.6216C80.5221 21.1578 80.5221 20.694 80.5156 20.2126C80.5091 19.784 80.5026 19.3613 80.4961 18.921C81.2299 15.2811 84.6394 15.8212 87.8735 16.0091ZM82.6782 17.7703C81.7755 18.4513 81.7755 18.4513 81.9638 20.3418C81.9703 21.1578 81.9768 21.9797 81.9898 22.7958C81.9898 23.2126 81.9963 23.6295 81.9963 24.0639C82.0028 25.0972 82.0157 26.1304 82.0287 27.1637C83.9575 27.1637 85.8863 27.1637 87.8735 27.1637C87.8735 24.0639 87.8735 20.9641 87.8735 17.7703C86.1591 17.7703 84.4446 17.7703 82.6782 17.7703Z" fill="#4C3F5D"/>
<path d="M63.1956 154.561C64.9425 155.841 66.092 156.857 67.0921 158.671C67.1181 160.039 67.1181 161.413 67.0921 162.781C66.8778 162.781 66.6635 162.781 66.4427 162.781C66.4427 161.618 66.4427 160.456 66.4427 159.258C66.0141 159.258 65.5855 159.258 65.1439 159.258C64.6503 158.771 64.1502 158.289 63.6437 157.79C62.0786 156.217 62.0786 156.217 60.2342 156.029C58.208 156.405 57.4092 156.64 56.0519 158.084C55.6363 159.839 55.4869 161.577 55.4025 163.368C55.8311 163.368 56.2598 163.368 56.7014 163.368C56.7014 163.755 56.7014 164.143 56.7014 164.542C57.1105 164.571 57.5131 164.601 57.9353 164.63C58.4678 164.671 58.9938 164.718 59.5458 164.765C60.0719 164.8 60.5979 164.841 61.1434 164.888C62.5462 165.129 62.5462 165.129 63.845 166.303C60.6499 167.008 58.4418 166.908 55.4025 165.716C53.6101 163.421 52.9412 161.454 53.4542 158.671C55.9091 155.143 58.5717 153.828 63.1956 154.561Z" fill="#453657"/>
<path d="M158.661 62.9761C162.954 68.7941 161.083 81.9801 159.96 88.8079C159.317 89.1014 159.317 89.1014 158.661 89.395C158.661 80.6767 158.661 71.9585 158.661 62.9761Z" fill="#3B2C50"/>
<path d="M138.529 71.7822C143.244 71.7822 147.959 71.7822 152.816 71.7822C152.816 71.976 152.816 72.1697 152.816 72.3693C148.316 72.3693 143.815 72.3693 139.178 72.3693C139.393 73.5317 139.607 74.6942 139.828 75.8918C139.542 77.5826 139.542 77.5826 139.178 78.8273C140.633 79.4848 141.549 79.5259 143.159 79.6022C143.685 79.6257 144.205 79.6492 144.744 79.6727C145.296 79.6962 145.841 79.7196 146.4 79.7431C147.231 79.7842 147.231 79.7842 148.075 79.8194C149.439 79.884 150.803 79.9427 152.167 80.0014C152.167 80.1952 152.167 80.3889 152.167 80.5885C149.27 81.1287 146.744 81.1639 143.802 80.9173C143.055 80.8586 142.309 80.7999 141.536 80.7353C140.971 80.6883 140.412 80.6414 139.828 80.5885C139.613 80.976 139.399 81.3635 139.178 81.7627C137.977 79.9134 137.717 78.5748 137.756 76.4437C137.763 75.9388 137.769 75.4339 137.769 74.9173C137.879 73.5435 137.879 73.5435 138.529 71.7822Z" fill="#6D607B"/>
<path d="M46.9601 44.7764C48.8889 45.0699 48.8889 45.0699 50.8566 45.3635C51.0709 45.9447 51.2852 46.5259 51.5061 47.1247C50.4345 47.3185 49.363 47.5122 48.2589 47.7118C47.4731 49.5376 47.4731 49.5376 47.6095 51.8214C49.1227 53.6179 50.8956 55.068 52.8049 56.5181C50.0838 56.5181 49.3759 55.4907 47.4472 53.8058C46.8562 53.3009 46.2587 52.796 45.6483 52.2735C44.3624 50.6472 44.3624 50.6472 44.4338 48.7744C45.0183 47.113 45.6872 46.0797 46.9601 44.7764Z" fill="#524367"/>
<path d="M76.1841 110.53C81.3275 110.724 86.4709 110.918 91.7702 111.117C91.1273 111.311 90.4844 111.505 89.822 111.704C89.822 112.092 89.822 112.479 89.822 112.879C81.5938 112.984 81.5938 112.984 78.1324 112.292C78.1324 111.904 78.1324 111.517 78.1324 111.117C77.4894 110.924 76.8465 110.73 76.1841 110.53Z" fill="#47385D"/>
<path d="M48.9082 99.9624C51.402 100.714 51.8891 101.659 53.3762 103.596C55.2531 106.004 57.1689 108.305 59.299 110.53C57.3507 110.53 57.3507 110.53 56.1363 109.667C48.9082 103.056 48.9082 103.056 48.9082 99.9624Z" fill="#46365A"/>
<path d="M152.167 72.9565C152.381 72.9565 152.595 72.9565 152.816 72.9565C152.816 75.2814 152.816 77.6063 152.816 80.0016C148.316 80.0016 143.815 80.0016 139.178 80.0016C141.139 78.2286 143.438 78.5515 146.075 78.4634C146.861 78.4282 146.861 78.4282 147.653 78.393C148.946 78.3343 150.231 78.2873 151.517 78.2403C151.732 76.4967 151.946 74.753 152.167 72.9565Z" fill="#2F2146"/>
<path d="M62.5464 141.646C66.2156 141.54 69.6121 141.945 73.2229 142.526C73.7554 142.609 74.2945 142.697 74.8465 142.779C76.1583 142.984 77.4701 143.196 78.782 143.407C78.782 143.601 78.782 143.794 78.782 143.994C73.3853 144.928 68.4302 144.311 63.1958 142.82C62.9815 142.432 62.7672 142.045 62.5464 141.646Z" fill="#4A3D5E"/>
<path d="M167.753 62.9761C167.967 62.9761 168.182 62.9761 168.402 62.9761C169.467 70.3734 170.032 77.254 169.052 84.6983C168.837 84.6983 168.623 84.6983 168.402 84.6983C168.402 79.0799 168.402 73.4614 168.402 67.6728C167.974 67.6728 167.545 67.6728 167.104 67.6728C167.318 66.1229 167.532 64.573 167.753 62.9761Z" fill="#675C74"/>
<path d="M60.5981 149.278C71.6318 148.896 71.6318 148.896 74.7491 151.373C75.0088 151.649 75.2686 151.931 75.5349 152.213C70.372 151.949 65.5792 151.115 60.5981 149.865C60.5981 149.671 60.5981 149.477 60.5981 149.278Z" fill="#4C3D5D"/>
<path d="M109.305 88.8076C112.091 88.8076 114.877 88.8076 117.747 88.8076C117.962 89.5826 118.176 90.3575 118.397 91.156C117.754 92.0307 117.754 92.0307 117.098 92.9172C117.098 91.7548 117.098 90.5924 117.098 89.3947C114.74 89.3947 112.383 89.3947 109.954 89.3947C109.928 90.1227 109.902 90.8507 109.876 91.5963C109.584 93.8507 109.422 94.0092 107.318 95.5591C106.688 95.8527 106.058 96.1403 105.408 96.4397C105.597 96.111 105.778 95.7822 105.973 95.4417C106.714 94.0738 107.408 92.6941 108.084 91.3027C108.688 90.0699 108.688 90.0699 109.305 88.8076Z" fill="#5D4E6D"/>
<path d="M30.7248 17.1831C31.1534 17.3768 31.582 17.5706 32.0236 17.7702C31.543 18.1988 31.543 18.1988 31.0495 18.6332C28.744 20.688 26.523 22.7604 24.4319 24.9972C22.8083 26.7115 21.3146 27.9268 19.0352 28.9248C19.9638 27.0109 21.0938 25.7546 22.7369 24.2927C23.4318 23.6704 23.4318 23.6704 24.1396 23.0305C24.6267 22.6019 25.1138 22.1733 25.6073 21.733C26.1009 21.2927 26.5879 20.8583 27.0945 20.4062C28.3024 19.3318 29.5104 18.2575 30.7248 17.1831Z" fill="#51435E"/>
<path d="M20.3336 27.751C20.3336 29.7353 20.0414 30.0817 18.7685 31.6081C18.2879 32.1952 18.2879 32.1952 17.7944 32.7999C17.4567 33.205 17.1125 33.6101 16.7618 34.0269C16.4241 34.4379 16.0799 34.8489 15.7292 35.2716C14.8849 36.2931 14.0407 37.3029 13.19 38.3185C12.7938 37.25 12.7938 37.25 12.5405 35.9702C13.4108 34.661 14.255 33.5573 15.3006 32.3772C15.5668 32.0602 15.8331 31.7432 16.1059 31.4203C17.4177 29.8821 18.5282 28.8371 20.3336 27.751Z" fill="#493B59"/>
<path d="M70.9888 116.401C71.4628 116.477 71.9369 116.559 72.424 116.636C78.6455 117.587 84.8215 117.921 91.1209 118.162C91.1209 118.356 91.1209 118.55 91.1209 118.749C88.2245 118.767 85.328 118.779 82.4316 118.784C81.6068 118.79 80.7821 118.796 79.9313 118.802C78.7559 118.802 78.7559 118.802 77.5479 118.808C76.4569 118.814 76.4569 118.814 75.3464 118.814C73.5865 118.749 73.5865 118.749 72.2876 118.162C72.2876 117.775 72.2876 117.387 72.2876 116.988C71.859 116.794 71.4304 116.6 70.9888 116.401Z" fill="#615471"/>
<path d="M124.241 38.9053C125.099 39.099 125.956 39.2928 126.839 39.4924C123.923 42.1871 121.001 44.7703 117.747 47.1245C117.318 46.9308 116.89 46.737 116.448 46.5374C119.02 44.0188 121.592 41.5002 124.241 38.9053Z" fill="#42315C"/>
<path d="M117.747 7.20264C122.163 7.37876 125.845 9.01086 129.437 11.3122C130.294 12.6038 130.294 12.6038 130.736 13.6606C127.787 12.6684 125.274 11.3122 122.618 9.8093C121.033 8.98151 119.462 8.36507 117.747 7.78972C117.747 7.59599 117.747 7.40225 117.747 7.20264Z" fill="#493B5A"/>
<path d="M107.43 155.062C108.859 155.22 108.859 155.22 111.255 155.737C111.255 155.93 111.255 156.124 111.255 156.324C110.541 156.371 109.833 156.418 109.099 156.471C106.748 156.723 106.748 156.723 105.449 157.862C104.521 159.746 104.631 161.332 104.761 163.369C104.118 163.175 103.475 162.981 102.813 162.782C102.54 160.357 102.553 158.625 104.112 156.617C106.06 155.15 106.06 155.15 107.43 155.062Z" fill="#3D2E57"/>
<path d="M41.1154 10.7251C41.544 10.9188 41.9726 11.1126 42.4142 11.3122C40.8036 12.8856 39.0697 14.2711 37.2188 15.6038C36.7902 15.9149 36.3616 16.232 35.92 16.5549C34.6211 17.1831 34.6211 17.1831 33.1599 16.9893C32.7833 16.8602 32.4066 16.731 32.0234 16.596C33.2963 15.7271 34.5692 14.8582 35.842 13.9893C36.1992 13.7427 36.5629 13.4961 36.9331 13.2437C39.6671 11.3768 39.6671 11.3768 41.1154 10.7251Z" fill="#50425F"/>
<path d="M95.0176 10.1384C104.395 9.90356 104.395 9.90356 108.655 11.3126C108.87 11.8938 109.084 12.475 109.305 13.0738C108.266 12.9036 107.22 12.7333 106.181 12.5572C105.532 12.4515 104.889 12.3458 104.226 12.2402C101.155 11.7353 98.0893 11.2304 95.0176 10.7255C95.0176 10.5317 95.0176 10.338 95.0176 10.1384Z" fill="#584A6B"/>
<path d="M51.5063 55.3438C53.7274 56.2068 55.1171 57.3281 56.7797 58.9015C58.5071 60.5806 58.5071 60.5806 60.5983 61.8017C60.384 62.5767 60.1697 63.3516 59.9489 64.1501C59.5397 63.7743 59.1371 63.3986 58.7149 63.017C58.1824 62.5297 57.6564 62.0424 57.1044 61.5434C56.5783 61.062 56.0523 60.5806 55.5068 60.0815C54.2209 58.8487 54.2209 58.8487 52.8052 58.2792C52.3376 57.3164 51.9025 56.3359 51.5063 55.3438Z" fill="#48395D"/>
<path d="M80.0806 104.072C83.9381 104.072 87.7957 104.072 91.7702 104.072C91.1273 104.366 91.1273 104.366 90.4713 104.659C90.4713 105.047 90.4713 105.434 90.4713 105.834C87.2567 105.834 84.042 105.834 80.73 105.834C80.5157 105.252 80.3014 104.671 80.0806 104.072Z" fill="#4E3F65"/>
<path d="M20.9834 88.8076C23.7694 88.8076 26.5555 88.8076 29.4259 88.8076C29.4259 90.1638 29.4259 91.52 29.4259 92.9172C28.1271 91.156 28.1271 91.156 28.1271 89.9818C25.984 90.1755 23.8409 90.3693 21.6328 90.5689C21.4185 91.3438 21.2042 92.1188 20.9834 92.9172C20.9834 91.5611 20.9834 90.2049 20.9834 88.8076Z" fill="#453655"/>
<path d="M96.9658 1.33203C101.583 1.561 105.636 2.14808 109.954 3.68038C109.954 3.87412 109.954 4.06786 109.954 4.26747C108.831 4.18527 107.707 4.09721 106.584 4.00915C105.649 3.9387 105.649 3.9387 104.687 3.86825C102.947 3.69212 101.271 3.42793 99.5635 3.09329C99.5635 2.70581 99.5635 2.31834 99.5635 1.91912C98.7063 1.72538 97.849 1.53164 96.9658 1.33203Z" fill="#514361"/>
<path d="M58.0005 154.562C62.7023 154.204 62.7023 154.204 65.1052 155.959C67.2028 158.372 67.1574 159.722 67.0924 162.781C66.8781 162.781 66.6638 162.781 66.443 162.781C66.443 161.619 66.443 160.456 66.443 159.258C66.0144 159.258 65.5858 159.258 65.1441 159.258C63.4427 157.861 63.4427 157.861 61.897 156.323C61.897 155.936 61.897 155.548 61.897 155.149C60.6112 155.149 59.3253 155.149 58.0005 155.149C58.0005 154.955 58.0005 154.761 58.0005 154.562Z" fill="#524363"/>
<path d="M130.736 110.53C131.262 111.522 131.262 111.522 131.385 112.879C129.924 114.346 129.924 114.346 128.138 115.814C127.469 116.583 126.813 117.364 126.19 118.162C125.333 117.969 124.476 117.775 123.592 117.575C124.001 117.217 124.404 116.853 124.826 116.483C125.359 116.008 125.885 115.532 126.437 115.045C127.223 114.34 127.223 114.34 128.034 113.618C129.522 112.292 129.522 112.292 130.736 110.53Z" fill="#4E3E62"/>
<path d="M3.44873 94.6787C5.89706 96.1523 6.05292 97.1269 6.89717 99.6337C7.13745 100.309 7.37774 100.984 7.62452 101.683C7.99469 103.485 7.99469 103.485 6.69585 105.246C6.15033 103.925 5.61131 102.604 5.07229 101.283C4.91643 100.914 4.76057 100.538 4.6047 100.156C3.80591 98.1836 3.44873 96.8098 3.44873 94.6787Z" fill="#534564"/>
<path d="M11.2416 85.8726C11.456 85.8726 11.6703 85.8726 11.8911 85.8726C12.1638 87.1054 12.4171 88.3442 12.6639 89.5771C12.8068 90.264 12.9496 90.9567 13.099 91.6612C13.1899 93.5047 13.1899 93.5047 12.2483 94.6319C11.917 94.8432 11.5858 95.0487 11.2416 95.266C10.0142 92.3481 9.20246 89.806 10.5922 86.8236C10.8065 86.5125 11.0208 86.1955 11.2416 85.8726Z" fill="#50406E"/>
<path d="M61.897 112.878C65.1895 113.26 68.0145 114.552 70.9889 115.814C70.9889 116.201 70.9889 116.589 70.9889 116.988C71.4175 117.182 71.8461 117.376 72.2877 117.575C68.5601 117.317 65.5987 115.92 62.5464 114.053C62.3321 113.665 62.1178 113.278 61.897 112.878Z" fill="#433458"/>
<path d="M78.1323 77.0659C78.6843 77.5238 79.2298 77.9876 79.7948 78.4632C81.9509 80.1012 83.8472 80.6354 86.5748 81.1755C86.5748 81.563 86.5748 81.9505 86.5748 82.3497C83.8018 82.6021 82.0029 82.5845 79.7948 81.0288C78.1323 79.4143 78.1323 79.4143 78.1323 77.0659Z" fill="#3E2F55"/>
<path d="M151.517 31.2734C154.732 32.6003 156.699 34.7901 158.011 37.7314C157.771 39.0523 157.771 39.0523 157.362 40.0797C156.505 38.9467 155.654 37.8077 154.803 36.6688C154.329 36.0347 153.855 35.4007 153.368 34.749C152.167 33.0347 152.167 33.0347 151.517 31.2734Z" fill="#3F3154"/>
<path d="M87.8737 158.084C88.088 158.471 88.3023 158.859 88.5231 159.258C87.8802 159.452 87.2372 159.646 86.5748 159.845C86.3605 159.652 86.1462 159.458 85.9254 159.258C82.6653 159.423 82.6653 159.423 80.0806 161.019C79.4377 161.019 78.7947 161.019 78.1323 161.019C78.7817 159.258 78.7817 159.258 80.4443 158.231C83.3407 157.28 84.8863 157.491 87.8737 158.084Z" fill="#514163"/>
<path d="M48.2588 111.117C48.8108 111.552 49.3563 111.992 49.9213 112.438C52.0449 114.041 54.2724 115.215 56.7013 116.401C56.7013 116.982 56.7013 117.563 56.7013 118.162C54.0776 117.117 51.8566 115.579 49.5576 114.053C48.9147 114.346 48.9147 114.346 48.2588 114.64C48.2588 113.477 48.2588 112.315 48.2588 111.117Z" fill="#5A4A6C"/>
<path d="M54.7534 163.368C55.3963 163.368 56.0393 163.368 56.7017 163.368C56.7017 163.755 56.7017 164.143 56.7017 164.542C57.1108 164.571 57.5135 164.601 57.9356 164.63C58.7279 164.694 58.7279 164.694 59.5462 164.765C60.332 164.824 60.332 164.824 61.1437 164.888C62.5465 165.129 62.5465 165.129 63.8453 166.303C60.6372 167.013 58.5136 166.673 55.4028 165.716C55.1885 164.941 54.9742 164.166 54.7534 163.368Z" fill="#4C3E61"/>
<path d="M150.218 107.595C150.433 107.595 150.647 107.595 150.868 107.595C151.231 109.761 150.731 110.941 149.407 112.697C148.127 114.205 147.069 115.198 145.023 115.814C146.023 113.947 147.14 112.168 148.309 110.383C148.653 109.861 148.997 109.338 149.348 108.798C149.634 108.399 149.92 108.006 150.218 107.595Z" fill="#504062"/>
<path d="M38.5176 95.853C38.7319 96.2405 38.9462 96.628 39.167 97.0272C39.5956 97.0272 40.0242 97.0272 40.4658 97.0272C40.9204 97.855 41.3685 98.6887 41.8037 99.5223C42.0569 99.9861 42.3037 100.45 42.557 100.925C43.122 102.464 43.0181 103.162 42.4141 104.659C41.7582 103.526 41.1088 102.387 40.4658 101.248C40.1022 100.614 39.745 99.9802 39.3683 99.3286C38.5176 97.6143 38.5176 97.6143 38.5176 95.853Z" fill="#524362"/>
<path d="M61.8966 89.395C63.3189 90.6807 63.8319 91.9078 64.5853 93.5692C65.436 95.2541 66.5595 96.6925 67.7414 98.2013C66.0854 97.9782 65.3191 97.7904 64.1826 96.6514C62.4681 94.1446 61.4745 92.4479 61.8966 89.395Z" fill="#4D3D5E"/>
<path d="M120.994 143.407C121.423 143.6 121.851 143.794 122.293 143.994C120.624 145.749 118.806 146.642 116.448 147.516C114.253 147.628 114.253 147.628 112.552 147.516C114.065 146.148 115.474 145.573 117.422 144.763C118.377 144.364 118.377 144.364 119.351 143.953C119.89 143.771 120.436 143.589 120.994 143.407Z" fill="#45355A"/>
<path d="M145.023 104.072C145.672 105.834 145.672 105.834 145.023 107.031C144.718 107.448 144.406 107.865 144.088 108.293C143.783 108.71 143.477 109.133 143.159 109.567C142.919 109.884 142.672 110.201 142.425 110.53C141.997 109.949 141.568 109.368 141.126 108.769C141.698 106.896 141.698 106.896 142.425 105.246C143.068 105.246 143.711 105.246 144.374 105.246C144.588 104.859 144.802 104.471 145.023 104.072Z" fill="#4F3D68"/>
<path d="M62.5461 3.68015C61.4745 3.87389 60.403 4.06762 59.299 4.26723C59.299 4.65471 59.299 5.04219 59.299 5.44141C58.0261 5.75256 56.7597 6.05785 55.4803 6.35726C54.7725 6.52752 54.0646 6.69778 53.3373 6.8739C51.5059 7.20267 51.5059 7.20267 50.207 6.61558C51.4539 6.13417 52.6943 5.65863 53.9412 5.18309C54.6361 4.9189 55.3245 4.65471 56.0389 4.37878C60.0783 2.93455 60.0783 2.93455 62.5461 3.68015Z" fill="#63556F"/>
<path d="M115.149 158.084C115.578 158.471 116.007 158.859 116.448 159.258C116.39 161.912 116.085 163.068 114.136 165.094C113.61 165.493 113.091 165.892 112.552 166.303C112.123 166.109 111.695 165.916 111.253 165.716C111.772 165.217 112.299 164.724 112.838 164.213C114.643 162.282 114.981 160.614 115.149 158.084Z" fill="#51435F"/>
<path d="M114.5 131.665C115.143 132.053 115.786 132.44 116.448 132.839C115.409 133.35 114.37 133.849 113.325 134.342C112.74 134.624 112.162 134.9 111.565 135.188C109.954 135.775 109.954 135.775 108.006 135.188C108.87 133.626 109.759 133.415 111.5 132.692C112.013 132.469 112.526 132.252 113.052 132.023C113.532 131.906 114.007 131.788 114.5 131.665Z" fill="#4F3F63"/>
<path d="M6.04643 50.0601C6.96212 51.7156 6.37764 52.5082 5.76069 54.2401C5.57885 54.7802 5.39052 55.3145 5.19569 55.8605C5.04632 56.2714 4.90345 56.6824 4.74759 57.1051C4.31897 57.1051 3.89035 57.1051 3.44874 57.1051C3.23443 57.4926 3.02012 57.8801 2.79932 58.2793C3.00064 57.3399 3.20196 56.3947 3.40977 55.4554C3.52018 54.927 3.63707 54.4045 3.74747 53.8644C4.09816 52.4084 4.09816 52.4084 4.74759 50.6471C5.17621 50.4534 5.60483 50.2597 6.04643 50.0601Z" fill="#4A3D5A"/>
<path d="M148.919 91.1562C149.692 93.2522 149.394 94.3911 148.958 96.5516C148.835 97.1856 148.705 97.8256 148.575 98.4831C148.478 98.9704 148.374 99.4577 148.27 99.9626C147.627 100.156 146.984 100.35 146.322 100.55C146.984 97.3383 147.666 94.2326 148.919 91.1562Z" fill="#392A4B"/>
<path d="M92.4196 85.2852C89.3868 86.9467 87.7892 87.7099 84.2239 87.6688C83.568 87.6629 82.9185 87.657 82.2496 87.657C81.7496 87.6453 81.243 87.6394 80.73 87.6336C80.73 87.4398 80.73 87.2461 80.73 87.0465C82.8731 87.0465 85.0162 87.0465 87.2242 87.0465C87.2242 86.659 87.2242 86.2715 87.2242 85.8723C89.2179 84.7803 90.2116 84.569 92.4196 85.2852Z" fill="#5D4E6D"/>
<path d="M28.127 120.511C30.7117 121.779 32.6015 123.276 34.6212 125.207C34.4069 125.789 34.1926 126.37 33.9718 126.969C32.9911 126.117 32.0235 125.26 31.0494 124.397C30.5038 123.922 29.9648 123.446 29.4063 122.953C28.127 121.685 28.127 121.685 28.127 120.511Z" fill="#413056"/>
<path d="M59.2993 53.5825C62.3386 53.7469 63.6829 54.9504 65.7026 56.8291C66.443 57.6921 66.443 57.6921 66.443 58.8663C64.5142 58.0679 63.0075 57.152 61.4099 55.8956C61.0138 55.5845 60.6112 55.2733 60.202 54.9563C59.9033 54.698 59.6045 54.4397 59.2993 54.1696C59.2993 53.9759 59.2993 53.7821 59.2993 53.5825Z" fill="#433358"/>
<path d="M135.282 27.1636C138.957 28.0325 138.957 28.0325 140.074 29.5824C140.269 30.1284 140.269 30.1284 140.477 30.6861C140.906 30.6861 141.334 30.6861 141.776 30.6861C141.562 31.4611 141.347 32.236 141.127 33.0344C140.23 32.2771 139.367 31.4904 138.529 30.6861C138.529 30.2986 138.529 29.9111 138.529 29.5119C138.113 29.3417 137.698 29.1714 137.269 28.9953C135.931 28.3377 135.931 28.3377 135.282 27.1636Z" fill="#554669"/>
<path d="M114.5 13.6606C115.948 13.9953 115.948 13.9953 117.5 14.6528C118.02 14.8583 118.539 15.0697 119.072 15.281C120.345 16.009 120.345 16.009 120.994 17.7703C118.091 16.9366 115.338 15.9444 112.552 14.8348C113.195 14.4473 113.838 14.0599 114.5 13.6606Z" fill="#544665"/>
<path d="M19.0352 108.769C21.412 109.485 21.7368 110.16 23.0551 112.033C23.3993 112.52 23.7435 113.007 24.0942 113.506C24.3539 113.876 24.6137 114.252 24.88 114.639C24.6657 115.027 24.4513 115.414 24.2305 115.814C22.1004 113.994 20.3795 112.309 19.0352 109.943C19.0352 109.555 19.0352 109.168 19.0352 108.769Z" fill="#493A5C"/>
<path d="M99.5636 108.182C100.206 108.569 100.849 108.957 101.512 109.356C100.473 109.749 99.4272 110.143 98.3881 110.53C97.8036 110.747 97.2256 110.964 96.6282 111.188C95.0176 111.704 95.0176 111.704 93.0693 111.704C93.0693 111.317 93.0693 110.929 93.0693 110.53C94.1084 110.107 95.1475 109.69 96.1931 109.285C96.7775 109.051 97.3555 108.822 97.953 108.581C98.7518 108.381 98.7518 108.381 99.5636 108.182Z" fill="#4F3E61"/>
<path d="M20.3338 89.395C20.5481 89.395 20.7624 89.395 20.9832 89.395C20.9832 90.5575 20.9832 91.7199 20.9832 92.9175C21.4118 92.9175 21.8404 92.9175 22.2821 92.9175C23.425 96.4166 23.425 96.4166 23.5809 97.6142C22.938 98.489 22.938 98.489 22.2821 99.3755C21.0027 95.9587 20.074 93.0173 20.3338 89.395Z" fill="#5A4B68"/>
<path d="M15.1382 48.8857C15.3525 48.8857 15.5668 48.8857 15.7876 48.8857C15.2162 53.3593 15.2162 53.3593 14.4888 55.3437C14.0602 55.3437 13.6316 55.3437 13.19 55.3437C12.9756 55.7312 12.7613 56.1187 12.5405 56.5179C12.9237 53.6705 13.8264 51.4631 15.1382 48.8857Z" fill="#433458"/>
<path d="M132.035 36.5571C133.295 37.0327 133.295 37.0327 134.632 37.7313C134.847 38.3125 135.061 38.8937 135.282 39.4926C134.022 41.3654 134.022 41.3654 132.684 43.0151C132.255 42.6276 131.827 42.2401 131.385 41.8409C131.729 40.8605 131.729 40.8605 132.074 39.8566C132.924 37.8487 132.924 37.8487 132.035 36.5571Z" fill="#564766"/>
<path d="M102.161 123.446C99.9467 125.448 96.7581 125.753 93.7188 125.865C93.2901 125.841 92.8615 125.818 92.4199 125.794C95.7645 123.775 98.1219 123.305 102.161 123.446Z" fill="#564666"/>
<path d="M120.345 99.9624C121.118 100.955 121.118 100.955 121.644 102.311C120.871 103.925 120.871 103.925 119.695 105.246C119.052 105.246 118.409 105.246 117.747 105.246C117.747 102.898 118.871 101.841 120.345 99.9624Z" fill="#50416A"/>
<path d="M74.2358 81.7627C74.9697 82.3263 75.697 82.8899 76.4309 83.4535C76.8335 83.7647 77.2427 84.0758 77.6583 84.3987C78.4961 85.0563 79.2948 85.749 80.0807 86.4594C78.2558 86.6414 78.2558 86.6414 76.1841 86.4594C74.6839 84.7862 74.2358 83.929 74.2358 81.7627Z" fill="#48385C"/>
<path d="M24.2305 35.9702C24.2305 38.1013 23.6136 38.7589 22.2823 40.4849C21.9186 40.9605 21.5614 41.4301 21.1847 41.9233C20.9055 42.2814 20.6262 42.6454 20.334 43.0153C19.9184 41.9761 19.9184 41.9761 19.6846 40.6669C20.2885 39.5573 20.2885 39.5573 21.1847 38.5006C21.477 38.1483 21.7692 37.7961 22.0744 37.4321C22.9317 36.5573 22.9317 36.5573 24.2305 35.9702Z" fill="#4F4161"/>
<path d="M93.0694 64.1504C93.498 64.3441 93.9267 64.5379 94.3683 64.7375C94.154 65.5124 93.9396 66.2874 93.7188 67.0858C92.2966 67.5261 92.2966 67.5261 90.4717 67.6729C88.6468 66.534 88.6468 66.534 87.2246 65.3246C88.1273 65.5242 88.1273 65.5242 89.0495 65.7297C91.1017 66.123 91.1017 66.123 92.3421 65.0662C92.5824 64.7668 92.8226 64.4615 93.0694 64.1504Z" fill="#53446C"/>
<path d="M66.443 11.3121C64.5662 12.2397 62.8517 12.7563 60.7605 13.1438C60.241 13.2436 59.7215 13.3434 59.1889 13.4432C58.7928 13.5137 58.4031 13.59 58.0005 13.6605C58.8577 13.273 59.715 12.8855 60.5982 12.4863C60.5982 12.0988 60.5982 11.7113 60.5982 11.3121C62.5919 10.4139 64.2999 10.9892 66.443 11.3121Z" fill="#594A6C"/>
<path d="M109.954 148.691C107.045 150.664 105.012 150.611 101.512 150.452C104.22 148.82 106.772 147.734 109.954 148.691Z" fill="#402F54"/>
<path d="M128.138 123.446C128.781 123.64 129.424 123.833 130.087 124.033C129.19 124.914 129.19 124.914 128.138 125.794C127.71 125.794 127.281 125.794 126.839 125.794C126.839 126.182 126.839 126.569 126.839 126.968C125.768 127.356 124.696 127.743 123.592 128.142C124.56 125.917 125.943 124.755 128.138 123.446Z" fill="#4A395A"/>
<path d="M26.1786 104.659C28.036 106.661 29.0036 108.716 30.0751 111.117C29.4322 111.117 28.7893 111.117 28.1269 111.117C26.7306 108.851 25.9253 107.272 26.1786 104.659Z" fill="#473859"/>
<path d="M62.5464 2.50586C64.6895 2.50586 66.8326 2.50586 69.0406 2.50586C67.4171 3.97358 66.6573 3.89138 64.4167 4.04403C63.8193 4.09099 63.2283 4.13209 62.6243 4.17906C61.9424 4.22602 61.9424 4.22602 61.2476 4.26712C61.6762 4.07338 62.1048 3.87964 62.5464 3.68003C62.5464 3.29256 62.5464 2.90508 62.5464 2.50586Z" fill="#3A2B51"/>
<path d="M42.4141 141.646C44.8364 141.939 46.1872 142.156 48.2589 143.407C48.4732 143.988 48.6875 144.569 48.9083 145.168C46.5769 144.387 44.4922 143.471 42.4141 142.233C42.4141 142.039 42.4141 141.845 42.4141 141.646Z" fill="#554668"/>
<path d="M59.9487 119.336C62.488 120.017 64.4103 120.722 66.443 122.272C62.9361 122.56 62.9361 122.56 61.0008 121.133C59.9487 119.924 59.9487 119.924 59.9487 119.336Z" fill="#47365B"/>
<path d="M118.397 104.072C118.397 106.18 117.968 106.485 116.448 108C116.085 108.364 115.727 108.728 115.351 109.104C115.072 109.38 114.792 109.661 114.5 109.943C114.071 109.749 113.643 109.556 113.201 109.356C113.643 108.992 113.643 108.992 114.097 108.622C115.208 107.642 115.208 107.642 115.799 106.385C116.448 105.246 116.448 105.246 118.397 104.072Z" fill="#372653"/>
<path d="M129.437 35.3828C130.658 35.4944 130.658 35.4944 132.035 35.9699C132.847 37.4728 132.847 37.4728 133.334 38.9053C132.691 38.5179 132.048 38.1304 131.385 37.7312C129.346 37.919 129.346 37.919 127.489 38.3182C128.132 37.3496 128.775 36.3809 129.437 35.3828Z" fill="#3D2E52"/>
<path d="M79.4312 167.478C79.7559 167.66 80.0741 167.842 80.4053 168.029C82.6653 168.898 84.7824 169.016 87.2242 169.239C87.2242 169.433 87.2242 169.626 87.2242 169.826C85.9384 169.826 84.6525 169.826 83.3277 169.826C83.1134 170.213 82.8991 170.601 82.6783 171C82.0353 171 81.3924 171 80.73 171C80.3014 169.838 79.8728 168.675 79.4312 167.478Z" fill="#6E607C"/>
<path d="M61.897 134.601C63.9687 135.117 63.9687 135.117 65.7935 135.775C65.7935 136.162 65.7935 136.55 65.7935 136.949C66.2222 137.143 66.6508 137.336 67.0924 137.536C64.5272 137.213 62.3191 136.72 59.9487 135.775C60.5917 135.387 61.2346 135 61.897 134.601Z" fill="#564769"/>
<path d="M108.655 51.8213C109.298 52.015 109.941 52.2088 110.604 52.4084C108.889 53.9583 107.175 55.5082 105.408 57.1051C104.98 56.9113 104.551 56.7176 104.109 56.518C105.61 54.9681 107.11 53.4182 108.655 51.8213Z" fill="#362650"/>
<path d="M60.5981 149.278C62.7412 149.278 64.8843 149.278 67.0924 149.278C67.3067 149.859 67.521 150.44 67.7418 151.039C66.9235 150.969 66.1053 150.892 65.2675 150.816C64.5791 150.757 64.5791 150.757 63.8712 150.693C62.5464 150.452 62.5464 150.452 60.5981 149.278Z" fill="#5A4C6C"/>
<path d="M49.5576 144.581C51.7462 144.904 52.8567 145.197 54.753 146.342C54.9673 146.73 55.1816 147.117 55.4024 147.516C53.2334 147.188 51.4864 146.724 49.5576 145.755C49.5576 145.368 49.5576 144.98 49.5576 144.581Z" fill="#4F4061"/>
<path d="M135.282 125.207C135.282 127.784 133.899 128.595 132.035 130.491C131.606 130.297 131.177 130.103 130.736 129.904C131.703 127.673 133.178 126.61 135.282 125.207Z" fill="#483A61"/>
<path d="M34.6211 125.794C36.3356 126.957 38.05 128.119 39.8165 129.317C39.1736 129.511 38.5306 129.704 37.8682 129.904C36.1213 128.877 36.1213 128.877 34.6211 127.556C34.6211 126.974 34.6211 126.393 34.6211 125.794Z" fill="#4A3A5D"/>
<path d="M7.34536 103.485C9.05983 105.322 9.83914 107.06 10.5925 109.356C8.6442 108.769 8.6442 108.769 7.87139 107.741C7.27392 106.244 7.24794 105.064 7.34536 103.485Z" fill="#423452"/>
<path d="M162.558 101.724C162.986 101.724 163.415 101.724 163.856 101.724C163.46 103.814 162.83 105.645 161.908 107.595C161.135 106.643 161.135 106.643 160.609 105.246C161.506 103.338 161.506 103.338 162.558 101.724Z" fill="#4E3F5F"/>
<path d="M56.0522 95.853C58.0525 97.4793 59.098 98.8237 59.9488 101.137C58.3642 100.479 58.3642 100.479 56.7017 99.3756C56.1756 97.5027 56.1756 97.5027 56.0522 95.853Z" fill="#413159"/>
<path d="M167.103 89.395C168.051 92.0487 167.279 93.8099 166.454 96.4401C165.324 94.8784 165.149 94.1504 165.317 92.26C165.804 90.5692 165.804 90.5692 167.103 89.395Z" fill="#564A67"/>
<path d="M128.788 21.293C131.327 22.0386 132.548 22.7666 133.983 24.8155C132.483 24.7039 132.483 24.7039 130.736 24.2284C129.56 22.7255 129.56 22.7255 128.788 21.293Z" fill="#423359"/>
<path d="M104.109 158.084C105.071 159.822 104.798 161.454 104.759 163.368C104.116 163.174 103.473 162.98 102.811 162.781C102.811 161.425 102.811 160.068 102.811 158.671C103.239 158.477 103.668 158.284 104.109 158.084Z" fill="#453656"/>
<path d="M14.4888 115.814C15.8266 116.841 15.8266 116.841 17.0865 118.162C16.9241 119.483 16.9241 119.483 16.437 120.511C15.0992 119.154 15.0992 119.154 13.8394 117.575C14.0537 116.994 14.268 116.413 14.4888 115.814Z" fill="#50405F"/>
<path d="M42.4141 115.227C44.122 116.119 45.5573 116.894 46.96 118.162C46.7457 118.743 46.5314 119.324 46.3106 119.923C45.6547 119.366 45.0118 118.802 44.3623 118.232C43.9987 117.921 43.6415 117.61 43.2648 117.287C42.4141 116.401 42.4141 116.401 42.4141 115.227Z" fill="#403054"/>
<path d="M158.012 38.9053C160.018 40.3906 160.551 41.9699 161.259 44.1891C159.311 43.602 159.311 43.602 158.538 42.5393C158.012 41.2536 158.012 41.2536 158.012 38.9053Z" fill="#504260"/>
<path d="M37.8682 22.4668C38.5111 22.6605 39.1541 22.8543 39.8165 23.0539C36.9655 25.4022 36.9655 25.4022 35.9199 25.9893C35.277 25.7956 34.6341 25.6018 33.9717 25.4022C36.8226 23.0539 36.8226 23.0539 37.8682 22.4668Z" fill="#49395A"/>
<path d="M127.489 142.233C124.066 144.123 124.066 144.123 122.943 144.581C122.514 144.388 122.086 144.194 121.644 143.994C122.93 141.663 124.917 141.405 127.489 142.233Z" fill="#544465"/>
<path d="M53.4546 137.536C55.3834 138.117 57.3122 138.699 59.2994 139.297C56.7017 140.472 56.7017 140.472 54.9158 139.955C54.4352 139.738 53.9482 139.52 53.4546 139.297C53.4546 138.716 53.4546 138.135 53.4546 137.536Z" fill="#58496A"/>
<path d="M26.8281 131.078C29.9129 131.518 29.9129 131.518 31.3741 132.839C31.1598 133.421 30.9455 134.002 30.7247 134.601C29.4128 133.638 28.114 132.657 26.8281 131.665C26.8281 131.471 26.8281 131.278 26.8281 131.078Z" fill="#4D3E60"/>
<path d="M152.167 119.336C152.693 120.329 152.693 120.329 152.816 121.685C151.231 123.299 151.231 123.299 149.569 124.62C149.913 122.378 150.543 121.062 152.167 119.336Z" fill="#46355A"/>
<path d="M108.858 112.475C109.222 112.61 109.579 112.739 109.956 112.88C105.572 115.228 105.572 115.228 104.111 115.228C104.111 114.841 104.111 114.453 104.111 114.054C106.806 112.222 106.806 112.222 108.858 112.475Z" fill="#413156"/>
<path d="M6.04627 99.3755C6.83207 100.743 7.45551 102.017 7.99454 103.485C7.35161 104.36 7.35161 104.36 6.69569 105.246C5.50075 103.027 5.29293 101.753 6.04627 99.3755Z" fill="#4E3F5E"/>
<path d="M155.414 54.1694C155.628 54.5569 155.843 54.9444 156.063 55.3436C156.492 55.3436 156.921 55.3436 157.362 55.3436C158.122 57.8094 158.07 58.1734 156.713 60.6274C156.284 58.4963 155.856 56.3651 155.414 54.1694Z" fill="#564864"/>
<path d="M151.517 45.9507C153.465 46.5378 153.465 46.5378 154.316 47.935C154.537 48.6924 154.537 48.6924 154.764 49.4732C154.121 50.348 154.121 50.348 153.465 51.2345C152.822 49.4908 152.18 47.7472 151.517 45.9507Z" fill="#4F4161"/>
<path d="M147.621 38.9053C149.439 40.3906 150.517 41.371 150.868 43.602C148.919 43.0149 148.919 43.0149 147.621 41.2536C147.621 40.4787 147.621 39.7037 147.621 38.9053Z" fill="#463757"/>
<path d="M20.334 27.751C20.334 29.5122 20.334 29.5122 18.7105 31.0915C18.1779 31.5377 17.6389 31.9839 17.0869 32.4477C17.3142 30.5455 17.4506 29.7353 19.0741 28.4496C19.4898 28.2206 19.9054 27.9858 20.334 27.751Z" fill="#3C2D51"/>
<path d="M125.541 10.7251C127.411 10.8719 127.411 10.8719 129.437 11.3122C130.333 12.5216 130.333 12.5216 130.736 13.6605C128.541 12.9619 127.067 12.322 125.541 10.7251Z" fill="#3F3052"/>
<path d="M107.356 154.561C111.591 154.344 111.591 154.344 113.162 155.442C113.39 155.736 113.617 156.023 113.851 156.323C109.551 155.882 109.551 155.882 107.356 154.561Z" fill="#584969"/>
<path d="M152.167 104.072C152.595 104.072 153.024 104.072 153.465 104.072C153.141 106.239 152.751 107.36 150.868 108.769C151.439 105.393 151.439 105.393 152.167 104.072Z" fill="#3F3054"/>
<path d="M104.759 96.4399C104.973 97.2149 105.187 97.9899 105.408 98.7883C104.98 98.7883 104.551 98.7883 104.109 98.7883C104.109 99.1758 104.109 99.5632 104.109 99.9625C103.252 99.7687 102.395 99.575 101.512 99.3754C102.583 98.4067 103.655 97.438 104.759 96.4399Z" fill="#524365"/>
<path d="M45.6613 89.9819C46.8822 91.9017 47.2784 93.6688 47.6096 95.8528C46.9666 95.6591 46.3237 95.4653 45.6613 95.2657C44.7716 93.387 45.1223 91.9193 45.6613 89.9819Z" fill="#554765"/>
<path d="M83.9771 142.82C86.1201 142.82 88.2632 142.82 90.4713 142.82C90.4713 143.014 90.4713 143.207 90.4713 143.407C88.3282 143.407 86.1851 143.407 83.9771 143.407C83.9771 143.213 83.9771 143.019 83.9771 142.82Z" fill="#604E79"/>
<path d="M142.425 81.1758C145.023 81.7629 145.023 81.7629 145.023 81.7629L142.425 81.1758Z" fill="#63527E"/>
<path d="M63.8452 122.859C64.2738 123.246 64.7025 123.634 65.1441 124.033C64.7154 124.033 64.2868 124.033 63.8452 124.033C63.8452 123.646 63.8452 123.258 63.8452 122.859Z" fill="#61507B"/>
<path d="M80.73 113.465C81.1586 113.465 81.5872 113.465 82.0288 113.465C81.8145 113.853 81.6002 114.24 81.3794 114.64C81.1651 114.252 80.9508 113.865 80.73 113.465Z" fill="#60507E"/>
<path d="M131.385 87.6338C133.334 88.2209 133.334 88.2209 133.334 88.2209L131.385 87.6338Z" fill="#61527C"/>
<path d="M114.5 87.6338C116.448 88.2209 116.448 88.2209 116.448 88.2209L114.5 87.6338Z" fill="#61527C"/>
<path d="M82.0288 29.5122C83.9771 30.0993 83.9771 30.0993 83.9771 30.0993L82.0288 29.5122Z" fill="#62527E"/>
<path d="M106.707 1.91895C108.655 2.50603 108.655 2.50603 108.655 2.50603L106.707 1.91895Z" fill="#60517B"/>
<path d="M54.104 165.716C55.4029 166.303 55.4029 166.303 55.4029 166.303L54.104 165.716Z" fill="#6C5D82"/>
<path d="M65.7935 151.626C67.0923 152.213 67.0923 152.213 67.0923 152.213L65.7935 151.626Z" fill="#65547E"/>
<path d="M49.5576 132.252C50.8565 132.84 50.8565 132.84 50.8565 132.84L49.5576 132.252Z" fill="#64547E"/>
<path d="M128.138 129.317C129.437 129.904 129.437 129.904 129.437 129.904L128.138 129.317Z" fill="#5E4D7C"/>
<path d="M52.8052 118.749C54.104 119.336 54.104 119.336 54.104 119.336L52.8052 118.749Z" fill="#5F4D7B"/>
<path d="M99.5635 114.64C100.862 115.227 100.862 115.227 100.862 115.227L99.5635 114.64Z" fill="#5E5075"/>
<path d="M96.3164 114.64C97.6153 115.227 97.6153 115.227 97.6153 115.227L96.3164 114.64Z" fill="#604E7C"/>
<path d="M87.874 113.465C89.1729 114.052 89.1729 114.052 89.1729 114.052L87.874 113.465Z" fill="#63527D"/>
<path d="M130.736 106.42C132.035 107.007 132.035 107.007 132.035 107.007L130.736 106.42Z" fill="#604E7C"/>
<path d="M81.3794 102.898C82.6782 103.485 82.6782 103.485 82.6782 103.485L81.3794 102.898Z" fill="#5D4E7B"/>
<path d="M41.1152 87.6338C42.4141 88.2209 42.4141 88.2209 42.4141 88.2209L41.1152 87.6338Z" fill="#60517C"/>
<path d="M156.713 83.5239C158.012 84.111 158.012 84.111 158.012 84.111L156.713 83.5239Z" fill="#62527C"/>
<path d="M23.5811 81.1758C24.8799 81.7629 24.8799 81.7629 24.8799 81.7629L23.5811 81.1758Z" fill="#63517F"/>
<path d="M169.701 68.2598C171 68.8469 171 68.8469 171 68.8469L169.701 68.2598Z" fill="#63567E"/>
<path d="M49.5576 57.105C50.8565 57.6921 50.8565 57.6921 50.8565 57.6921L49.5576 57.105Z" fill="#62517F"/>
<path d="M6.04639 39.4927C7.34523 40.0798 7.34523 40.0798 7.34523 40.0798L6.04639 39.4927Z" fill="#675880"/>
<path d="M122.293 19.5317C123.592 20.1188 123.592 20.1188 123.592 20.1188L122.293 19.5317Z" fill="#62517D"/>
<path d="M91.7705 10.7251C93.0694 11.3122 93.0694 11.3122 93.0694 11.3122L91.7705 10.7251Z" fill="#614F7C"/>
<path d="M43.0635 6.61572C44.3623 7.20281 44.3623 7.20281 44.3623 7.20281L43.0635 6.61572Z" fill="#665781"/>
</svg>
